<svg width="1440" height="976" viewBox="0 0 1440 976" fill="none" xmlns="http://www.w3.org/2000/svg">
<path d="M32.2407 0C32.5618 3.05786 30.621 3.89136 27.4839 5.18226C31.0071 7.3726 32.9638 8.46438 32.2407 12.3079C35.4627 10.708 37.2806 10.1563 40.9616 11.0123C40.191 7.4918 39.1152 5.36364 42.5472 2.59113V1.94335L32.2407 0Z" fill="#1A3954"/>
<path d="M787.784 3.23891L777.477 27.2069L776.684 29.798L777.477 27.8546L746.558 29.798V30.4458C751.909 33.0233 765.617 38.2515 767.258 43.4597C769.43 50.345 761.225 58.0659 765.585 64.7782H766.378C771.594 61.5264 784.256 51.9677 790.955 52.4153C801.103 53.0935 809.253 63.9659 819.496 62.8349L812.043 45.3448L809.522 38.2289L825.838 23.3202C819.932 23.3334 809.023 26.1079 803.719 23.9245C795.236 20.4305 794.808 8.1581 787.784 3.23891Z" fill="#213C55"/>
<path d="M1357.81 4.53447C1356.33 10.3943 1354.34 16.1529 1352.89 22.0246C1352.28 24.5427 1352 27.3938 1348.99 28.7818C1341.97 32.0076 1330.8 32.3385 1322.93 33.4165C1319.26 33.9198 1314.73 33.6724 1313.41 36.9236L1337.2 50.985L1345.59 57.7103L1338.78 88.7462H1339.58C1344.49 83.2918 1352.68 79.0521 1359.4 75.1427C1361.66 73.8251 1364.31 71.6732 1367.32 72.2297C1377.99 74.1976 1387.51 84.4844 1399.04 82.2683C1397.14 75.5178 1394.56 68.7634 1391.9 62.1871C1390.81 59.4988 1388.1 55.3316 1388.71 52.4704C1389.91 46.9506 1403.45 38.7542 1408.55 35.1746C1411.13 33.3608 1415.44 31.4772 1416.22 28.5124C1417.36 24.1413 1408.98 25.875 1406.17 25.9133C1395.46 26.0595 1384.22 26.9011 1373.67 28.5024C1371.57 22.2227 1367.72 16.1087 1364.03 10.3645C1362.33 7.72415 1361.72 5.08703 1357.81 4.53447Z" fill="#1A3954"/>
<path d="M785.405 12.3079L784.612 14.899H785.405V12.3079Z" fill="#213C55"/>
<path d="M1361.77 12.3079V14.2512H1363.36V12.3079H1361.77Z" fill="#1A3954"/>
<path d="M947.137 12.9556C945.449 16.1552 945.298 21.0923 942.586 23.7645C939.249 27.0582 928.998 26.7061 924.146 27.2069V27.8546L941.588 38.8669C938.02 39.3022 936.26 50.1979 935.245 53.1181L949.516 46.4596L963.786 51.8226L961.043 36.5505L974.885 24.6157C969.209 23.2455 959.925 23.8983 954.272 25.2635L947.137 12.9556Z" fill="#1A3954"/>
<path d="M408.03 16.1946H408.823L409.616 14.899L411.994 16.8423L409.616 14.2512L408.03 16.1946Z" fill="#213C55"/>
<path d="M408.823 14.899L404.859 20.729C408.666 22.9999 410.91 23.7949 411.994 27.8546H412.787C414.348 24.955 415.804 23.0156 419.922 23.3202C417.966 20.366 418.112 18.7295 419.129 15.5468C414.519 17.6426 413.065 17.2576 408.823 14.899Z" fill="#213C55"/>
<path d="M783.82 14.899V16.1946H785.405V14.899L783.82 14.899Z" fill="#213C55"/>
<path d="M408.03 16.1946V18.7857H408.823L408.03 16.1946Z" fill="#1A3954"/>
<path d="M783.82 16.1946L783.819 16.8423L786.198 17.4901L783.82 16.1946Z" fill="#1A3954"/>
<path d="M1364.15 16.1946C1363.48 17.9419 1363.48 18.3879 1365.74 18.7857L1364.15 16.1946Z" fill="#1A3954"/>
<path d="M414.373 16.8423V17.4901H416.751L414.373 16.8423Z" fill="#213C55"/>
<path d="M783.027 17.4901V20.0812H783.819L783.027 17.4901Z" fill="#213C55"/>
<path d="M949.516 18.7857L948.723 20.0813H950.308L949.516 18.7857Z" fill="#1A3954"/>
<path d="M270.875 19.4335L268.811 27.4343L258.983 32.3891C261.546 32.7202 265.673 32.4934 266.118 34.9802L269.289 34.3325C269.696 35.9357 269.768 36.0005 271.668 35.628L270.082 46.6403C277.983 41.6336 278.475 41.5662 288.317 42.7536L284.316 33.0369L290.695 23.3202C280.137 25.7501 278.387 25.7895 270.875 19.4335Z" fill="#1A3954"/>
<path d="M417.544 19.4335L420.715 23.9679H421.508L417.544 19.4335ZM782.234 19.4335V20.729H783.819L782.234 19.4335Z" fill="#1A3954"/>
<path d="M820.289 22.6724V23.3202H825.838L820.289 22.6724Z" fill="#1A3954"/>
<path d="M416.751 23.3202V23.9679H419.922L416.751 23.3202Z" fill="#1A3954"/>
<path d="M808.396 23.3202V23.9679H812.36L808.396 23.3202Z" fill="#1A3954"/>
<path d="M812.36 23.3202V23.9679H815.532L812.36 23.3202Z" fill="#213C55"/>
<path d="M815.532 23.3202L815.532 23.9679H819.496L815.532 23.3202Z" fill="#213C55"/>
<path d="M802.847 23.9679L802.847 24.6157H806.018L802.847 23.9679Z" fill="#213C55"/>
<path d="M771.927 27.2069V27.8546L775.891 27.8546L771.927 27.2069Z" fill="#1A3954"/>
<path d="M776.684 27.2069V27.8546H779.063L776.684 27.2069Z" fill="#213C55"/>
<path d="M764.792 27.8546V28.5024H768.756L764.792 27.8546Z" fill="#1A3954"/>
<path d="M768.756 27.8546L768.756 28.5024H771.135L768.756 27.8546Z" fill="#213C55"/>
<path d="M777.477 27.8546L779.063 29.1502V27.8546L777.477 27.8546Z" fill="#1A3954"/>
<path d="M1138.2 27.8546C1139.06 31.2271 1137.53 32.4325 1134.24 34.3325V34.9802H1139.79L1142.17 40.8103C1144.72 38.3448 1145.87 36.5388 1150.1 36.2758V35.628L1146.92 34.3325L1149.3 29.1502C1144.32 30.4896 1142.6 30.2393 1138.2 27.8546Z" fill="#213C55"/>
<path d="M748.936 28.5024V29.1502H756.864L748.936 28.5024Z" fill="#1A3954"/>
<path d="M756.864 28.5024L756.864 29.1502H760.828L756.864 28.5024Z" fill="#213C55"/>
<path d="M760.828 28.5024V29.1502H764.792L760.828 28.5024Z" fill="#213C55"/>
<path d="M1138.2 29.798V31.7413H1139L1138.2 29.798Z" fill="#213C55"/>
<path d="M930.488 30.4458L936.038 34.3325L934.452 33.0369V31.0936H933.66L930.488 30.4458Z" fill="#1A3954"/>
<path d="M281.974 34.3325V35.628H283.56L281.974 34.3325Z" fill="#1A3954"/>
<path d="M1150.1 35.628V37.5714H1150.89L1150.1 35.628Z" fill="#1A3954"/>
<path d="M1145.34 36.2758V36.9236H1147.72L1145.34 36.2758Z" fill="#213C55"/>
<path d="M1147.72 36.2758V36.9236H1150.89L1147.72 36.2758Z" fill="#213C55"/>
<path d="M957.444 37.5714L956.651 39.5147L958.236 40.8103H959.029L957.444 37.5714Z" fill="#1A3954"/>
<path d="M1325.3 40.8103L1336.4 48.5837H1337.2L1338.78 46.6403H1335.61L1334.03 42.7536L1329.27 41.4581L1325.3 40.8103Z" fill="#1A3954"/>
<path d="M637.151 44.0492L637.943 45.9925L640.322 46.6403L637.151 44.0492Z" fill="#213C55"/>
<path d="M637.943 45.3448L633.979 51.8226C638.625 52.2495 639.869 54.1876 641.115 57.6526H641.908C643.495 54.7389 645.067 53.365 649.043 53.1181C647.248 50.4085 646.993 48.9056 648.25 45.9925C643.731 47.2091 642.093 47.3224 637.943 45.3448Z" fill="#213C55"/>
<path d="M641.115 47.2881V47.9359H643.493L641.115 47.2881Z" fill="#213C55"/>
<path d="M783.819 49.2315V50.527H785.405L783.819 49.2315Z" fill="#1A3954"/>
<path d="M637.151 52.4704V53.1182L639.529 53.7659L637.151 52.4704Z" fill="#1A3954"/>
<path d="M649.043 52.4704L646.664 53.1182V53.7659L649.836 53.1182L649.043 52.4704Z" fill="#213C55"/>
<path d="M764.792 52.4704V54.4137H765.585L764.792 52.4704Z" fill="#1A3954"/>
<path d="M1346.71 54.4137L1347.5 57.6526L1349.88 55.0615L1346.71 54.4137Z" fill="#1A3954"/>
<path d="M66.3313 55.0615V55.7093L68.7097 56.3571L66.3313 55.0615Z" fill="#213C55"/>
<path d="M1382.39 55.0615L1381.59 57.6526L1385.56 60.2438L1383.97 55.0615H1382.39Z" fill="#1A3954"/>
<path d="M65.5385 55.7093C65.108 60.1693 66.0539 70.1542 62.6821 73.669C56.5347 80.0769 42.0049 77.7138 35.412 83.5639C41.9645 85.539 59.8708 91.1864 62.6821 96.6394C65.9667 103.012 61.5745 113.67 61.5745 120.488H62.3673C65.8652 116.736 75.3003 106.144 81.3946 105.95C86.6715 105.782 93.8781 109.085 98.8363 110.486C100.503 110.957 103.8 111.98 105.073 110.378C106.362 108.756 104.051 105.787 103.257 104.293C100.983 100.018 93.3477 92.1995 95.6754 87.4506C98.7864 81.1043 114.531 73.1359 111.521 66.0738L89.3227 70.2358L80.9023 71.1777L67.917 55.7093H65.5385Z" fill="#213C55"/>
<path d="M767.171 58.9482L766.378 60.2438H767.963L767.171 58.9482Z" fill="#213C55"/>
<path d="M63.9529 59.596V61.5393H64.7457L63.9529 59.596Z" fill="#1A3954"/>
<path d="M763.207 60.8915V62.8349H763.999L763.207 60.8915Z" fill="#213C55"/>
<path d="M63.9529 61.5393V63.4827H64.7457L63.9529 61.5393Z" fill="#213C55"/>
<path d="M813.153 62.1871L815.532 63.4827V62.8349L813.153 62.1871Z" fill="#1A3954"/>
<path d="M1385.56 62.1871V63.4827H1387.14L1385.56 62.1871Z" fill="#1A3954"/>
<path d="M1346.71 62.8349V64.7782L1348.3 64.1305V63.4827L1346.71 62.8349Z" fill="#1A3954"/>
<path d="M63.9529 63.4827V66.0738H64.7457L63.9529 63.4827Z" fill="#213C55"/>
<path d="M63.1601 66.0738V69.9605H63.9529L63.1601 66.0738Z" fill="#1A3954"/>
<path d="M63.1601 69.9605V72.5516H63.9529L63.1601 69.9605Z" fill="#213C55"/>
<path d="M79.809 70.6083L82.1874 71.9038V71.2561L79.809 70.6083Z" fill="#1A3954"/>
<path d="M460.355 74.495L459.742 89.3259L440.535 99.7585L460.355 104.941V104.293L458.77 103.645L461.148 102.997L461.941 103.645L461.148 105.589L463.526 106.236C464.963 105.264 465.129 105.486 465.905 106.884L464.907 111.419L466.698 125.67H467.49C468.971 122.023 475.132 113.032 480.246 112.458C486.918 111.708 493.623 116.033 499.995 113.362V112.714C496.862 109.392 487.059 101.21 487.627 96.8927C488.156 92.8713 493.303 87.6786 495.757 84.2117C496.539 83.1079 498.543 80.783 496.989 79.558C495.579 78.4464 492.702 79.845 491.275 80.2861C486.944 81.6245 479.265 85.6964 474.696 85.3512C469.809 84.9819 464.244 77.0395 460.355 74.495Z" fill="#1A3954"/>
<path d="M1391.11 77.7339V79.0294H1392.69V77.7339H1391.11Z" fill="#1A3954"/>
<path d="M465.112 80.9728V82.2684H466.698V80.9728H465.112Z" fill="#1A3954"/>
<path d="M46.5112 86.155V86.8028L48.8896 87.4506L46.5112 86.155Z" fill="#213C55"/>
<path d="M50.4752 87.4506V88.0984L52.8537 88.7462V86.8028L50.4752 87.4506Z" fill="#1A3954"/>
<path d="M55.2321 88.7462L54.4393 90.0417H56.0249L55.2321 88.7462Z" fill="#1A3954"/>
<path d="M58.4033 90.6895V92.6329H59.1961L58.4033 90.6895Z" fill="#213C55"/>
<path d="M58.4033 91.3373L59.9889 92.6329V91.3373H58.4033Z" fill="#1A3954"/>
<path d="M61.5745 95.224L62.3673 99.1107H63.1601L61.5745 95.224Z" fill="#1A3954"/>
<path d="M448.463 100.406V101.054L457.977 102.35V101.702L454.806 100.406H448.463ZM484.139 101.054L487.311 102.997L486.518 100.406L484.139 101.054Z" fill="#1A3954"/>
<path d="M62.3673 101.702V104.293H63.1601L62.3673 101.702Z" fill="#213C55"/>
<path d="M79.809 102.35V103.645H81.3946V102.35H79.809Z" fill="#213C55"/>
<path d="M840.109 105.589L843.28 111.419H844.865V114.01L837.73 119.84C845.452 118.286 846.427 120.668 852.001 124.374C853.705 117.206 855.909 116.506 863.893 114.01C858.716 110.518 852.73 110.354 855.172 103.645C848.33 106.47 848.06 107.702 840.109 105.589Z" fill="#213C55"/>
<path d="M62.3673 104.293V106.884H63.1601L62.3673 104.293Z" fill="#213C55"/>
<path d="M854.379 104.293V107.532H855.172L854.379 104.293Z" fill="#213C55"/>
<path d="M61.5745 106.884V109.475H62.3673L61.5745 106.884Z" fill="#1A3954"/>
<path d="M301.794 107.532L301.002 112.066H301.794V108.18L306.551 111.419L301.794 107.532Z" fill="#1A3954"/>
<path d="M301.794 108.18L307.344 112.066V111.419L301.794 108.18Z" fill="#213C55"/>
<path d="M841.694 108.18V109.475H843.28L841.694 108.18Z" fill="#213C55"/>
<path d="M301.794 108.827C301.958 112.552 300.684 114.216 296.245 115.305V115.953C299.627 116.924 300.731 118.234 301.001 121.135L304.173 117.896L312.101 118.544C309.958 115.428 309.089 114.221 310.515 110.771C306.756 111.513 304.926 110.492 301.794 108.827Z" fill="#213C55"/>
<path d="M712.467 108.827C713.101 112.007 711.479 113.389 708.503 115.305V115.953C713.321 116.311 715.2 117.847 715.638 121.783C719.065 119.96 719.647 117.264 724.359 117.896C722.399 114.695 721.945 113.574 723.566 110.123C718.565 111.274 716.885 111.22 712.467 108.827Z" fill="#1A3954"/>
<path d="M61.5745 109.475V111.419H62.3673L61.5745 109.475Z" fill="#213C55"/>
<path d="M478.59 109.475L477.797 110.771H479.383L478.59 109.475Z" fill="#1A3954"/>
<path d="M842.487 110.123V111.419L844.073 110.123H842.487Z" fill="#213C55"/>
<path d="M61.5745 111.419V113.362H62.3673L61.5745 111.419Z" fill="#213C55"/>
<path d="M102.008 111.419L102.008 112.066H104.386L102.008 111.419Z" fill="#213C55"/>
<path d="M301.002 112.066L301.001 114.01H301.794L301.002 112.066Z" fill="#213C55"/>
<path d="M843.28 112.066L844.073 114.01L844.865 114.01L843.28 112.066Z" fill="#213C55"/>
<path d="M60.7817 113.362V115.953H61.5745L60.7817 113.362Z" fill="#1A3954"/>
<path d="M60.7817 117.249V119.192H61.5745L60.7817 117.249Z" fill="#213C55"/>
<path d="M300.209 117.249V119.192H301.001L300.209 117.249Z" fill="#213C55"/>
<path d="M843.28 118.544V119.192H845.658L843.28 118.544Z" fill="#213C55"/>
<path d="M300.209 119.192V121.135L301.001 121.135L300.209 119.192ZM836.937 119.192V120.488H838.523L836.937 119.192Z" fill="#1A3954"/>
<path d="M840.901 119.192L840.901 119.84H843.28L840.901 119.192Z" fill="#1A3954"/>
<path d="M560.249 128.261C563.752 135.814 563.595 136.542 558.663 143.808L568.177 142.512H568.969L572.933 140.569L580.069 149.638L580.862 140.569L591.168 137.978V136.682C580.676 133.356 579.276 130.676 579.276 121.783L569.624 129.328L560.249 128.261Z" fill="#213C55"/>
<path d="M579.276 123.726V126.318H580.069L579.276 123.726Z" fill="#1A3954"/>
<path d="M579.276 126.318V130.204H580.069L579.276 126.318Z" fill="#213C55"/>
<path d="M559.456 127.613V128.909L561.041 127.613H559.456Z" fill="#213C55"/>
<path d="M579.276 130.204L579.276 132.148H580.069L579.276 130.204Z" fill="#213C55"/>
<path d="M563.42 143.16L565.005 141.864L568.177 142.512C566.44 140.949 564.799 141.56 563.42 143.16Z" fill="#213C55"/>
<path d="M565.005 141.864L566.591 143.16V141.864H565.005Z" fill="#213C55"/>
<path d="M566.591 142.512L566.591 143.16H568.969L566.591 142.512Z" fill="#1A3954"/>
<path d="M580.069 144.455V146.399H580.862L580.069 144.455Z" fill="#213C55"/>
<path d="M580.069 146.399L578.483 149.638V150.285L580.862 150.933L580.069 146.399Z" fill="#1A3954"/>
<path d="M1297.56 147.694L1296.76 152.229H1297.56L1299.14 147.694H1297.56Z" fill="#213C55"/>
<path d="M1298.35 148.342L1292.8 154.172C1297.42 154.944 1298.56 157.018 1297.56 160.65L1306.28 158.707L1303.11 155.468L1307.86 149.638C1303.84 150.303 1301.67 150.506 1298.35 148.342Z" fill="#213C55"/>
<path d="M1306.28 148.99V149.638H1308.66L1306.28 148.99Z" fill="#1A3954"/>
<path d="M1294.39 154.172L1294.39 154.82C1297.08 156.171 1297.45 157.474 1297.56 160.002H1298.35C1298.31 157.019 1298.03 155.267 1294.39 154.172ZM1303.9 154.172L1303.11 154.82L1305.48 156.116L1303.9 154.172Z" fill="#213C55"/>
<path d="M1306.28 158.059L1305.48 159.354H1307.07L1306.28 158.059Z" fill="#213C55"/>
<path d="M1144.55 174.901L1134.88 185.87L1114.42 184.618L1124.73 196.926L1127.1 195.63L1125.52 198.221L1129.48 200.813L1127.9 199.517H1127.1L1116.8 215.064L1134.24 211.314L1148.51 220.894C1150.34 215.827 1147.37 209.588 1149.78 204.767C1152.05 200.219 1164.66 197.296 1169.92 195.63V194.335L1147.74 188.308L1144.55 174.901Z" fill="#213C55"/>
<path d="M224.099 177.492C222.675 180.533 222.53 185.06 220.185 187.661C217.132 191.046 206.593 191.064 201.901 191.096C203.255 193.274 205.154 195.242 208.243 194.335L214.586 200.165L216.171 198.869L215.379 201.46H219.343V202.108C214.876 204.592 213.699 212.774 213 217.007L226.478 210.537L242.334 215.064L238.529 200.813L251.848 188.505L232.206 188.477L225.685 177.492H224.099Z" fill="#1A3954"/>
<path d="M226.478 182.675V184.618H227.271L226.478 182.675Z" fill="#1A3954"/>
<path d="M1146.92 182.675V184.618H1147.72L1146.92 182.675Z" fill="#1A3954"/>
<path d="M45.7184 183.322V183.97L48.0968 184.618L45.7184 183.322Z" fill="#213C55"/>
<path d="M45.7184 183.97V185.914H46.5112L45.7184 183.97Z" fill="#1A3954"/>
<path d="M46.5112 183.97C46.7134 187.183 45.2229 188.283 42.5472 190.448H48.0968L49.6824 196.926H50.4752C52.6721 193.933 53.9691 192.51 58.4033 192.391L55.2321 190.448L56.8177 185.266C52.1893 186.563 50.5831 186.176 46.5112 183.97Z" fill="#213C55"/>
<path d="M670.448 189.152L679.962 207.29L682.341 206.643L683.133 207.938V208.586L679.962 207.938L665.692 222.837C670.733 222.283 680.433 219.05 685.211 221.022C689.26 222.692 693.1 233.92 697.982 233.253C699.886 232.992 700.113 230.504 700.416 229.314C701.377 225.544 701.423 219.636 704.331 216.505C708.605 211.904 721.151 211.537 727.53 209.881C725.44 204.421 710.687 201.465 704.539 199.517L706.125 183.97L692.644 193.557L670.448 189.152Z" fill="#213C55"/>
<path d="M1122.35 184.618V185.266H1124.73L1122.35 184.618Z" fill="#1A3954"/>
<path d="M1146.92 184.618V187.209H1147.72L1146.92 184.618Z" fill="#213C55"/>
<path d="M706.125 185.266V191.096H706.917L706.125 185.266Z" fill="#1A3954"/>
<path d="M1127.9 185.266V185.914H1131.07L1127.9 185.266Z" fill="#1A3954"/>
<path d="M46.5112 185.914V187.857H47.304L46.5112 185.914ZM49.6824 185.914L49.6824 186.561H54.4393V185.914H49.6824Z" fill="#213C55"/>
<path d="M1131.07 185.914V186.561H1135.82L1131.07 185.914Z" fill="#213C55"/>
<path d="M1146.92 187.209V189.152H1147.72L1146.92 187.209Z" fill="#213C55"/>
<path d="M1013.73 188.505V191.744H1014.53L1013.73 188.505Z" fill="#1A3954"/>
<path d="M1014.53 188.505V193.039L1009.77 194.335L1015.32 195.63L1016.11 202.108H1016.9C1018.92 199.293 1020.69 197.668 1024.83 198.221V190.448C1020 191.92 1018.34 191.121 1014.53 188.505Z" fill="#213C55"/>
<path d="M1016.11 189.152L1020.08 191.744V191.096L1016.11 189.152Z" fill="#1A3954"/>
<path d="M45.7184 191.096V191.744L48.8896 192.391L48.0968 190.448L45.7184 191.096Z" fill="#213C55"/>
<path d="M1121.55 191.096L1123.93 193.687V191.096H1121.55Z" fill="#213C55"/>
<path d="M705.332 191.744V194.982H706.125L705.332 191.744Z" fill="#213C55"/>
<path d="M53.6465 192.391L53.6465 193.039H56.0249L53.6465 192.391Z" fill="#1A3954"/>
<path d="M56.0249 192.391L56.0249 193.039H59.1961L56.0249 192.391Z" fill="#213C55"/>
<path d="M1123.14 193.687V194.335H1125.52L1123.14 193.687ZM1167.54 193.039V193.687L1169.92 194.335L1167.54 193.039Z" fill="#213C55"/>
<path d="M691.061 193.687V194.335H693.44L691.061 193.687Z" fill="#213C55"/>
<path d="M675.205 195.63V196.926H676.791L675.205 195.63Z" fill="#213C55"/>
<path d="M874.199 195.63C874.485 201.098 873.565 203.055 867.064 205.347V205.995C875.468 207.687 877.775 208.945 878.163 216.359H878.956C882.357 211.166 884.926 211.132 891.641 211.177L887.019 204.051L890.055 196.278C882.373 198.888 881.104 199.599 874.199 195.63Z" fill="#1A3954"/>
<path d="M705.332 196.278V198.221H706.125L705.332 196.278Z" fill="#1A3954"/>
<path d="M1125.52 196.278L1127.1 197.574V196.278H1125.52Z" fill="#1A3954"/>
<path d="M1015.32 198.869V200.813H1016.11L1015.32 198.869Z" fill="#213C55"/>
<path d="M1127.9 198.869V200.813H1128.69L1127.9 198.869Z" fill="#213C55"/>
<path d="M234.406 202.108V204.051H235.992V202.108H234.406Z" fill="#1A3954"/>
<path d="M1149.3 203.404V206.643H1150.1L1149.3 203.404Z" fill="#213C55"/>
<path d="M1146.92 204.699V206.643H1147.72L1146.92 204.699Z" fill="#213C55"/>
<path d="M462.734 205.995C458.59 209.38 451.974 217.378 446.085 218.349C436.86 219.869 427.611 210.242 418.337 211.177C421.142 216.764 430.524 229.135 428.394 235.145C425.706 242.732 413.225 246.493 408.823 253.283L435.778 251.34C437.362 256.981 444.116 267.269 450.842 269.477C452.924 263.48 454.038 251.678 459.216 247.084C464.811 242.119 481.908 242.173 489.689 240.975C488.451 234.756 468.144 228.37 461.148 226.724C462.661 221.948 467.008 209.837 462.734 205.995Z" fill="#213C55"/>
<path d="M1149.3 206.643V217.007H1150.1L1149.3 206.643Z" fill="#213C55"/>
<path d="M726.738 207.29L727.53 209.881L728.323 209.881L726.738 207.29Z" fill="#213C55"/>
<path d="M464.319 208.586V211.825H465.112L464.319 208.586Z" fill="#1A3954"/>
<path d="M461.148 211.825V213.768H461.941L462.734 211.825H461.148ZM463.526 211.825V213.768H464.319L463.526 211.825Z" fill="#213C55"/>
<path d="M463.526 215.064V217.655H464.319L463.526 215.064Z" fill="#1A3954"/>
<path d="M461.148 215.712L459.562 216.359V217.007L461.148 215.712Z" fill="#213C55"/>
<path d="M698.989 216.359L700.575 217.655V216.359H698.989Z" fill="#1A3954"/>
<path d="M1149.3 217.007V220.894H1150.1L1149.3 217.007Z" fill="#1A3954"/>
<path d="M462.734 217.655V219.598H463.526L462.734 217.655Z" fill="#213C55"/>
<path d="M423.886 218.303L425.472 219.598V222.189H426.265L423.886 218.303Z" fill="#213C55"/>
<path d="M462.734 220.246V222.189H463.526L462.734 220.246Z" fill="#1A3954"/>
<path d="M679.962 220.894V221.542H682.34L679.962 220.894Z" fill="#1A3954"/>
<path d="M673.62 221.542L673.62 222.189H675.998L673.62 221.542Z" fill="#1A3954"/>
<path d="M1412.51 225.428V226.076H1414.89L1412.51 225.428Z" fill="#213C55"/>
<path d="M1413.31 225.428L1411.72 231.258L1413.31 230.61L1412.51 236.441L1410.93 235.145H1410.14L1409.34 238.384L1411.72 237.736L1408.55 240.327L1410.14 242.271L1390.32 244.214V244.862L1403.09 251.476L1403.79 264.943L1419.32 256.118L1437.88 261.704C1438.71 255.965 1431.51 250.136 1429.16 244.862L1439.47 235.793L1425.23 236.883L1413.31 225.428Z" fill="#213C55"/>
<path d="M430.229 230.61L429.436 231.906H431.021L430.229 230.61Z" fill="#213C55"/>
<path d="M1412.51 230.61L1410.93 231.906L1412.51 233.849H1413.31L1412.51 230.61Z" fill="#213C55"/>
<path d="M1410.93 231.906V233.849H1411.72L1410.93 231.906Z" fill="#213C55"/>
<path d="M430.229 233.849V234.497L432.607 235.145L430.229 233.849Z" fill="#213C55"/>
<path d="M1410.14 234.497L1412.51 235.793L1411.72 233.849L1410.14 234.497Z" fill="#213C55"/>
<path d="M431.814 235.145L430.229 235.793V236.441L431.814 235.145Z" fill="#213C55"/>
<path d="M1410.93 235.145L1410.93 236.441L1412.51 236.441L1410.93 235.145Z" fill="#213C55"/>
<path d="M489.689 237.736V240.975L490.482 240.975L489.689 237.736Z" fill="#1A3954"/>
<path d="M1432.33 239.679V240.975H1433.92V239.679H1432.33Z" fill="#213C55"/>
<path d="M487.311 240.975V241.623H489.689L487.311 240.975Z" fill="#213C55"/>
<path d="M1404.59 240.975V241.623H1406.96L1404.59 240.975Z" fill="#1A3954"/>
<path d="M1408.55 240.975L1410.14 242.271V240.975L1408.55 240.975Z" fill="#213C55"/>
<path d="M482.554 241.623V242.271H484.932L482.554 241.623Z" fill="#213C55"/>
<path d="M1401.41 241.623V242.271H1403.79L1401.41 241.623Z" fill="#1A3954"/>
<path d="M480.175 242.271L480.175 242.918H482.554L480.175 242.271Z" fill="#1A3954"/>
<path d="M454.013 246.805V248.748H454.806L454.013 246.805Z" fill="#213C55"/>
<path d="M426.265 251.34V251.987H429.436L426.265 251.34Z" fill="#213C55"/>
<path d="M429.436 251.34V251.987H432.607L429.436 251.34Z" fill="#213C55"/>
<path d="M432.607 251.34V251.987H434.985L432.607 251.34Z" fill="#1A3954"/>
<path d="M418.337 251.987V252.635H420.715L418.337 251.987Z" fill="#213C55"/>
<path d="M420.715 251.987V252.635H425.472L420.715 251.987Z" fill="#1A3954"/>
<path d="M408.03 252.635L410.409 253.931V253.283L408.03 252.635Z" fill="#213C55"/>
<path d="M1403 253.283V257.817H1403.79L1403 253.283Z" fill="#1A3954"/>
<path d="M1414.89 253.931V255.874H1415.68L1414.89 253.931Z" fill="#213C55"/>
<path d="M1403 257.817V261.056H1403.79L1403 257.817Z" fill="#213C55"/>
<path d="M1403 261.056V264.295H1403.79L1403 261.056Z" fill="#213C55"/>
<path d="M1303.9 263V264.943H1304.69L1303.9 263Z" fill="#1A3954"/>
<path d="M1295.18 272.069L1284.87 270.125C1288.35 277.517 1288.13 278.531 1283.29 285.672L1293.59 282.433L1295.18 283.729L1297.56 282.433L1304.69 291.502C1304.69 283.898 1307.07 282.165 1315.79 279.842V278.546C1305.37 275.054 1303.9 272.636 1303.9 263.647L1295.18 272.069Z" fill="#213C55"/>
<path d="M1303.9 265.591V268.83H1304.69L1303.9 265.591Z" fill="#1A3954"/>
<path d="M1303.9 268.83V272.716H1304.69L1303.9 268.83Z" fill="#213C55"/>
<path d="M1284.08 269.477V270.773L1285.66 269.477H1284.08Z" fill="#213C55"/>
<path d="M1303.9 275.955V276.603H1306.28V275.955H1303.9Z" fill="#213C55"/>
<path d="M1295.97 282.433V283.729L1297.56 282.433H1295.97Z" fill="#213C55"/>
<path d="M1293.59 283.081V284.376H1295.18V283.081H1293.59Z" fill="#213C55"/>
<path d="M1288.04 283.729V285.024H1289.63V283.729H1288.04Z" fill="#213C55"/>
<path d="M1304.69 285.672V287.615H1305.48L1304.69 285.672Z" fill="#213C55"/>
<path d="M1304.69 287.615V292.798H1305.48L1304.69 287.615Z" fill="#1A3954"/>
<path d="M324.786 291.502C324.819 297.283 322.498 298.142 317.65 301.867L323.993 303.81H327.957L328.75 311.583H329.542C333.039 306.475 335.702 307.005 342.227 307.049C337.467 300.222 338.067 299.451 340.642 292.15C332.621 294.037 332.014 295.659 324.786 291.502Z" fill="#213C55"/>
<path d="M323.993 294.093V296.037H324.786L323.993 294.093Z" fill="#1A3954"/>
<path d="M686.305 299.275C687.927 304.796 685.529 306.198 679.962 308.992V309.64L690.269 311.583V319.357C696.493 316.096 696.401 314.298 704.539 314.822C700.124 308.349 699.642 306.897 702.953 299.923C694.661 301.533 694.159 302.245 686.305 299.275ZM1182.6 323.243L1156.44 327.725L1143.75 331.017L1168.33 345.56L1176.42 351.859L1174.83 360.815L1169.12 383.487C1176 379.531 1182.03 374.546 1188.94 370.555C1191.31 369.19 1194.56 366.585 1197.66 366.804C1204.27 367.269 1213.16 372.768 1219.07 375.233C1221.49 376.241 1225.51 378.605 1228.26 376.989C1230.81 375.481 1228.25 371.111 1227.52 369.236C1225.31 363.582 1218.04 352.521 1219.66 346.674C1222.44 336.698 1243.99 332.761 1247.28 323.256C1248.86 318.675 1239.89 320.531 1237.3 320.627C1226.59 321.024 1215.27 321.183 1204.8 323.243L1192.11 299.275C1184.92 300.294 1183.11 318.039 1182.6 323.243Z" fill="#1A3954"/>
<path d="M335.092 301.219V302.514H336.678V301.219H335.092Z" fill="#213C55"/>
<path d="M320.822 303.162L323.2 303.81C323.553 302.147 321.973 301.929 320.822 303.162Z" fill="#213C55"/>
<path d="M979.642 303.81C979.642 311.735 976.067 312.442 967.75 315.47L974.093 316.766H974.885L975.678 319.357L978.849 318.709L981.228 320.004V320.652L978.849 331.017C987.158 326.018 987.523 325.191 997.877 327.13L993.389 317.413L999.462 307.697L986.849 309.503L979.642 303.81ZM156.711 304.458V305.105H159.089L156.711 304.458Z" fill="#1A3954"/>
<path d="M157.504 305.105C156.062 308.183 155.81 312.596 153.549 315.289C150.421 319.014 140.193 318.706 135.305 318.709C137.21 321.782 144.337 328.068 148.783 326.482V329.073L149.576 329.721L151.954 329.073L146.405 345.268L159.882 338.402L174.946 343.325L171.87 328.426L185.252 316.118L163.846 316.766C163.394 314.311 162.408 309.998 159.089 309.64L157.504 305.105Z" fill="#213C55"/>
<path d="M1192.91 306.401V308.992H1193.7L1192.91 306.401Z" fill="#1A3954"/>
<path d="M337.47 307.049V307.697H339.849L337.47 307.049Z" fill="#1A3954"/>
<path d="M339.849 307.049V307.697H342.227L339.849 307.049Z" fill="#213C55"/>
<path d="M11.6278 307.697C11.6705 310.948 10.8571 312.194 7.6638 314.174L13.2134 314.822L14.799 321.3H15.5918C17.753 318.331 18.9552 316.35 23.5199 316.766C21.3685 313.873 21.0628 312.277 21.9343 308.992C17.4778 310.649 15.4525 310.008 11.6278 307.697Z" fill="#1A3954"/>
<path d="M327.164 307.697V309.64H327.957L327.164 307.697Z" fill="#1A3954"/>
<path d="M159.089 308.344V309.64L160.675 308.344H159.089Z" fill="#213C55"/>
<path d="M697.404 308.992L698.989 310.288V308.992H697.404Z" fill="#1A3954"/>
<path d="M327.957 309.64L328.75 312.231H329.542L327.957 309.64Z" fill="#213C55"/>
<path d="M173.36 315.47V316.118H182.081L173.36 315.47Z" fill="#1A3954"/>
<path d="M182.081 315.47L182.081 316.118H185.252L182.081 315.47Z" fill="#213C55"/>
<path d="M166.225 316.118V316.766H169.396L166.225 316.118Z" fill="#213C55"/>
<path d="M169.396 316.118L169.396 316.766H172.567L169.396 316.118Z" fill="#213C55"/>
<path d="M143.233 317.413V318.061H145.612L143.233 317.413Z" fill="#1A3954"/>
<path d="M136.098 318.061V318.709H139.269L136.098 318.061Z" fill="#1A3954"/>
<path d="M140.855 318.061V318.709H143.233L140.855 318.061Z" fill="#213C55"/>
<path d="M1350.67 318.061L1346.71 324.539C1351.56 325.412 1352.85 327.149 1353.85 331.017H1354.64C1356.22 327.942 1357.41 326.079 1361.77 326.482L1360.98 318.709C1356.59 320.159 1354.74 320.121 1350.67 318.061Z" fill="#1A3954"/>
<path d="M990.742 318.709V320.004H992.327V318.709H990.742Z" fill="#1A3954"/>
<path d="M140.855 321.948L144.026 323.891V323.243L140.855 321.948Z" fill="#213C55"/>
<path d="M144.819 324.539V325.187V325.835H147.197V325.187L144.819 324.539Z" fill="#213C55"/>
<path d="M147.197 327.778V328.426L149.576 328.426L147.197 327.778Z" fill="#213C55"/>
<path d="M148.783 332.312V334.256H149.576L148.783 332.312Z" fill="#1A3954"/>
<path d="M1156.44 335.551C1158.17 337.583 1167.89 345.431 1169.12 340.734C1166.42 340.487 1165.8 339.601 1165.16 337.495L1156.44 335.551Z" fill="#1A3954"/>
<path d="M457.977 339.438C458.743 343.312 457.419 344.815 453.22 346.564L457.184 347.859L457.977 352.394C461.843 350.089 463.448 349.317 468.283 349.802L466.698 342.029L457.977 339.438Z" fill="#213C55"/>
<path d="M457.184 340.733V344.62H457.977L457.184 340.733Z" fill="#1A3954"/>
<path d="M457.977 340.733V343.972H458.77L457.977 340.733Z" fill="#213C55"/>
<path d="M174.946 342.029L173.36 343.325V343.972L174.946 342.029Z" fill="#213C55"/>
<path d="M552.321 373.77V374.418C562.258 380.367 573.991 390.648 585.618 393.852L577.69 426.889C584.525 422.958 590.697 418.149 597.51 414.123C599.724 412.815 602.547 410.399 605.438 410.323C611.483 410.162 622.322 416.584 627.637 418.975C629.918 420.001 634.153 422.296 636.661 420.475C639.031 418.753 636.584 414.597 635.835 412.637C633.564 406.689 627.507 397.479 628.148 391.261C628.445 388.367 632.451 386.033 634.772 384.135C641.813 378.379 648.809 371.99 656.971 367.293L654.592 363.406L624.466 365.405L613.698 365.548L603.348 348.507L598.984 343.549L595.233 349.155L589.908 366.279L579.276 369.099L552.321 373.77Z" fill="#1A3954"/>
<path d="M145.612 343.325V345.916H146.405L145.612 343.325Z" fill="#213C55"/>
<path d="M1172.29 343.972C1172.24 346.087 1172.88 346.608 1175.47 346.564L1172.29 343.972Z" fill="#1A3954"/>
<path d="M456.391 348.507V351.098H457.184L456.391 348.507Z" fill="#1A3954"/>
<path d="M1177.05 349.155L1178.64 351.746H1179.43L1181.01 351.098V349.802L1177.05 349.155Z" fill="#1A3954"/>
<path d="M461.941 349.155L461.941 349.802H464.319L461.941 349.155Z" fill="#1A3954"/>
<path d="M1211.93 351.746L1215.9 354.985H1216.69L1215.11 349.802L1211.93 351.746Z" fill="#1A3954"/>
<path d="M603.06 354.985V356.928H604.646V354.985H603.06ZM1216.69 356.928V358.871H1217.48L1216.69 356.928ZM1177.84 357.576V359.519H1178.64L1177.84 357.576Z" fill="#1A3954"/>
<path d="M778.27 362.758L774.306 369.884C779.848 370.032 779.729 372.371 782.234 375.714C784.208 373.027 785.358 371.432 789.369 371.179L788.576 364.054C784.026 365.247 782.274 364.887 778.27 362.758Z" fill="#213C55"/>
<path d="M1196.87 362.758V363.406H1199.25L1196.87 362.758Z" fill="#1A3954"/>
<path d="M777.477 364.054L776.684 367.293H777.477V364.054Z" fill="#1A3954"/>
<path d="M776.684 369.884L776.684 370.531H779.856L776.684 369.884Z" fill="#213C55"/>
<path d="M786.991 371.179V371.827H789.369L786.991 371.179Z" fill="#213C55"/>
<path d="M564.213 378.953L576.898 386.726L577.69 384.135L573.726 380.896L564.213 378.953Z" fill="#1A3954"/>
<path d="M955.858 381.544L953.48 386.726V391.908L949.516 393.852L951.894 393.204L951.101 395.147L949.516 394.499H948.723V397.738L928.903 396.443V397.091L940.359 405.537L937.624 419.115L955.065 412.695L972.507 420.411L968.028 404.335L978.849 395.795L964.912 394.481L957.444 381.544H955.858Z" fill="#213C55"/>
<path d="M952.687 386.726L953.48 389.317H954.272L955.065 386.078L952.687 386.726Z" fill="#213C55"/>
<path d="M952.687 387.374L951.101 391.26H951.894L952.687 387.374Z" fill="#213C55"/>
<path d="M224.099 389.317C222.63 393.342 224.331 399.955 221.699 403.388C218.623 407.401 205.666 409.141 200.315 410.046C203.582 414.752 217.618 420.59 224.099 419.763L221.721 421.059L220.135 440.492L235.199 428.184H235.992C240.191 431.208 250.34 433.845 255.812 432.719C253.606 428.073 246.575 420.835 247.011 415.876C247.482 410.539 257.418 403.652 261.361 399.682V399.034C253.231 396.383 243.981 403.739 236.16 401.77C232.217 400.776 227.292 392.282 225.685 389.317H224.099Z" fill="#1A3954"/>
<path d="M586.411 391.908L587.204 395.795L589.582 394.499V393.852L586.411 391.908Z" fill="#1A3954"/>
<path d="M620.502 394.499L625.258 398.386L623.673 393.852L620.502 394.499Z" fill="#1A3954"/>
<path d="M964.579 394.499L964.579 395.147H974.093L964.579 394.499Z" fill="#1A3954"/>
<path d="M943.966 395.795V396.443L948.723 397.738L949.516 395.795H943.966ZM976.471 395.147V395.795L979.642 396.443V395.795L976.471 395.147Z" fill="#213C55"/>
<path d="M928.11 395.795V397.091L929.695 395.795H928.11Z" fill="#213C55"/>
<path d="M929.695 395.795L929.696 396.443H936.038L929.695 395.795Z" fill="#213C55"/>
<path d="M936.038 395.795L936.038 396.443H943.966L936.038 395.795Z" fill="#213C55"/>
<path d="M1085.88 397.738V398.386L1091.43 400.977L1087.46 397.091L1085.88 397.738Z" fill="#1A3954"/>
<path d="M1086.67 397.738L1087.46 399.682L1089.84 400.329L1086.67 397.738Z" fill="#213C55"/>
<path d="M1087.46 399.034L1083.5 405.512C1088.15 405.939 1089.39 407.877 1090.63 411.342H1091.43C1093.01 408.428 1094.59 407.054 1098.56 406.807C1096.77 404.098 1096.51 402.594 1097.77 399.682C1093.5 400.805 1091.48 400.754 1087.46 399.034Z" fill="#213C55"/>
<path d="M1086.67 399.682V401.625H1087.46L1086.67 399.682Z" fill="#213C55"/>
<path d="M1098.56 406.16L1096.18 406.807V407.455L1099.36 406.807L1098.56 406.16Z" fill="#213C55"/>
<path d="M1093.81 406.807V407.455L1096.18 407.455L1093.81 406.807Z" fill="#1A3954"/>
<path d="M208.243 413.285V413.933L216.171 417.172V415.228L213.793 415.876L208.243 413.285Z" fill="#1A3954"/>
<path d="M630.015 417.172H632.394L631.601 415.876L630.015 417.172Z" fill="#1A3954"/>
<path d="M58.4033 422.354V423.002H60.7817L58.4033 422.354Z" fill="#213C55"/>
<path d="M58.4033 423.002C57.448 426.784 57.096 434.037 53.9636 436.975C49.4589 441.2 36.8644 440.246 30.6551 441.788L50.3183 455.449L46.5112 474.824C51.0913 472.266 58.1639 465.26 63.9529 465.205C70.6957 465.141 76.8281 471.004 83.773 471.586C83.1689 465.923 76.6449 458.263 78.1473 452.8C79.9295 446.314 92.4669 444.021 94.5068 437.987C95.302 435.634 90.9107 435.998 89.3219 436.143C82.4467 436.77 75.4851 436.579 68.7098 437.901L60.7817 423.002H58.4033Z" fill="#213C55"/>
<path d="M235.199 426.241L234.406 427.536H235.992L235.199 426.241Z" fill="#1A3954"/>
<path d="M88.5299 435.31V435.958H91.7011L88.5299 435.31Z" fill="#1A3954"/>
<path d="M76.6378 435.958V436.605H79.809L76.6378 435.958Z" fill="#1A3954"/>
<path d="M79.809 435.958L79.809 436.605H84.5658L79.809 435.958Z" fill="#213C55"/>
<path d="M84.5658 435.958V436.605H88.5299L84.5658 435.958Z" fill="#213C55"/>
<path d="M94.8723 435.958L95.6651 437.901H96.4579L94.8723 435.958Z" fill="#1A3954"/>
<path d="M70.2954 436.605V437.253H72.6738L70.2954 436.605Z" fill="#1A3954"/>
<path d="M74.2594 436.605V437.253H76.6378L74.2594 436.605Z" fill="#213C55"/>
<path d="M1418.86 436.605V438.549H1419.65L1418.86 436.605Z" fill="#1A3954"/>
<path d="M1419.65 437.253C1422.38 440.324 1424.77 441.317 1429.16 439.844V439.196C1425 440.165 1423.13 439.14 1419.65 437.253Z" fill="#213C55"/>
<path d="M1419.65 437.901C1420.08 441.139 1418.47 442.292 1415.68 444.379H1421.23L1422.82 450.857H1423.61L1425.99 446.322H1431.54L1429.96 439.196C1425.45 440.87 1423.62 440.055 1419.65 437.901Z" fill="#213C55"/>
<path d="M339.849 448.265L334.299 447.618L329.542 445.674C333.974 452.946 333.637 454.02 328.75 461.221L337.471 459.925L339.056 458.63H343.02L349.363 467.699H350.155C349.069 459.753 353.251 458.303 361.255 455.391V454.743C351.035 449.991 349.363 449.095 349.363 439.196L339.849 448.265Z" fill="#213C55"/>
<path d="M1419.65 439.196V441.14H1420.44L1419.65 439.196Z" fill="#213C55"/>
<path d="M349.363 439.844V447.618H350.155L349.363 439.844ZM1423.61 439.844L1423.61 440.492H1425.99L1423.61 439.844ZM31.4479 440.492V441.14H33.8264L31.4479 440.492Z" fill="#1A3954"/>
<path d="M33.8264 440.492V441.14L36.2048 441.14L33.8264 440.492Z" fill="#213C55"/>
<path d="M1418.86 445.026V445.674L1422.03 446.322L1421.23 444.379L1418.86 445.026Z" fill="#213C55"/>
<path d="M38.5832 445.026L41.7544 447.618V446.97L40.9616 445.674L38.5832 445.026Z" fill="#213C55"/>
<path d="M1426.78 446.322V446.97H1429.16L1426.78 446.322Z" fill="#1A3954"/>
<path d="M1429.16 446.322V446.97H1432.33L1429.16 446.322Z" fill="#213C55"/>
<path d="M43.34 446.97L46.5112 449.561V448.913L43.34 446.97Z" fill="#213C55"/>
<path d="M349.363 447.618V450.209H350.155L349.363 447.618Z" fill="#213C55"/>
<path d="M48.0968 450.857V452.152H49.6824L48.0968 450.857Z" fill="#1A3954"/>
<path d="M333.506 450.857L334.299 452.8H335.092L333.506 450.857Z" fill="#213C55"/>
<path d="M349.363 451.504V452.8H351.741V452.152L349.363 451.504Z" fill="#213C55"/>
<path d="M339.056 459.925H341.435L340.642 458.63L339.056 459.925Z" fill="#213C55"/>
<path d="M341.435 458.63L341.435 459.925L343.02 458.63H341.435Z" fill="#213C55"/>
<path d="M336.678 459.278V460.573H338.263L336.678 459.278Z" fill="#213C55"/>
<path d="M350.155 461.869V464.46H350.948L350.155 461.869Z" fill="#1A3954"/>
<path d="M1234.93 462.517V464.46H1235.72L1234.93 462.517Z" fill="#213C55"/>
<path d="M1235.72 463.164L1231.75 470.29H1237.3L1238.89 476.768H1239.68C1241.26 473.706 1242.56 471.854 1246.82 471.586L1246.02 464.46C1241.51 465.921 1239.58 465.498 1235.72 463.164Z" fill="#213C55"/>
<path d="M1245.23 463.812L1246.82 465.108V463.812H1245.23Z" fill="#213C55"/>
<path d="M716.431 465.108V465.755H718.809L716.431 465.108Z" fill="#213C55"/>
<path d="M1234.93 464.46L1234.13 467.699H1234.93L1234.93 464.46Z" fill="#1A3954"/>
<path d="M349.363 465.108V467.051H350.155L349.363 465.108Z" fill="#213C55"/>
<path d="M717.224 465.108C715.589 468.212 715.519 472.529 713.149 475.276C710.23 478.66 699.635 478.633 695.025 478.711C697.952 483.149 706.318 488.434 712.467 489.076V489.723C707.993 492.099 706.573 500.414 706.125 504.622L719.602 498.15L734.666 503.327C734.442 499.138 729.346 491.752 731.588 487.965C734.359 483.283 744.282 481.041 744.179 475.472C740.054 476.275 727.231 477.901 724.12 475.241C720.833 472.429 720.741 467.953 717.224 465.108Z" fill="#213C55"/>
<path d="M79.0162 468.347L80.6018 469.642V468.347H79.0162Z" fill="#213C55"/>
<path d="M1246.82 470.938L1246.02 472.233H1247.61L1246.82 470.938Z" fill="#213C55"/>
<path d="M80.6018 471.586V472.233H82.9802L80.6018 471.586Z" fill="#213C55"/>
<path d="M1243.65 471.586L1243.65 472.233H1246.02L1243.65 471.586Z" fill="#213C55"/>
<path d="M728.323 475.472V476.12H733.08L728.323 475.472Z" fill="#1A3954"/>
<path d="M733.08 475.472L733.08 476.12H740.215L733.08 475.472Z" fill="#213C55"/>
<path d="M740.215 475.472L740.215 476.12H743.386L740.215 475.472Z" fill="#213C55"/>
<path d="M725.152 476.12V476.768H727.53L725.152 476.12Z" fill="#213C55"/>
<path d="M700.575 477.416V478.063H702.953L700.575 477.416Z" fill="#1A3954"/>
<path d="M695.818 478.063V478.711H698.197L695.818 478.063Z" fill="#213C55"/>
<path d="M698.197 478.063V478.711H700.575L698.197 478.063Z" fill="#213C55"/>
<path d="M700.575 481.95V482.598L702.161 483.893H702.953L700.575 481.95Z" fill="#213C55"/>
<path d="M704.539 484.541L706.125 485.837V484.541H704.539Z" fill="#213C55"/>
<path d="M710.089 490.371H710.881L710.089 489.076L712.467 489.723C710.919 488.554 710.078 488.601 710.089 490.371Z" fill="#213C55"/>
<path d="M1062.89 501.384L1063.68 503.327L1069.23 505.27V504.622L1062.89 501.384Z" fill="#213C55"/>
<path d="M1063.68 502.679L1059.72 509.157H1064.47L1066.85 514.987H1067.64C1069.23 512.073 1070.81 510.699 1074.78 510.452C1072.67 507.624 1072.54 506.413 1073.99 503.327C1069.59 504.507 1067.73 504.691 1063.68 502.679Z" fill="#213C55"/>
<path d="M705.332 503.327V505.27H706.125L705.332 503.327Z" fill="#213C55"/>
<path d="M1062.89 503.327V505.918H1063.68L1062.89 503.327Z" fill="#213C55"/>
<path d="M1071.61 510.452L1071.61 511.1H1073.99L1071.61 510.452Z" fill="#213C55"/>
<path d="M905.119 511.748L904.326 513.691H905.119V511.748Z" fill="#1A3954"/>
<path d="M905.911 511.748V512.396H908.29L905.911 511.748Z" fill="#213C55"/>
<path d="M908.29 511.748L909.083 513.691H909.875L908.29 511.748Z" fill="#1A3954"/>
<path d="M905.119 512.396C904.136 517.868 902.669 531.291 898.19 535.384C895.922 537.458 890.832 537.771 887.677 538.305C878.782 539.811 869.506 540.484 860.722 542.194V544.137L894.019 563.571L886.091 595.96C892.648 592.199 898.641 587.652 905.119 583.752C907.331 582.42 910.652 579.658 913.506 579.476C919.571 579.088 931.305 586.44 936.831 588.674C939.074 589.579 943.601 591.777 945.456 589.198C946.836 587.287 944.672 583.617 943.942 581.709C942.016 576.627 933.921 564.012 936.775 559.036C940.176 553.091 950.626 546.746 956.651 542.469C960.805 539.517 964.928 537.245 962.993 532.477L935.245 534.531L922.735 535.316L918.255 529.238L909.083 512.396H905.119Z" fill="#213C55"/>
<path d="M1310.24 513.044L1304.69 520.817L1290.42 518.874L1297.56 524.704L1296.76 527.295L1298.35 526.647L1297.56 528.59H1299.94V530.534L1298.35 529.886L1292.01 539.603L1303.11 537.275L1313.41 543.489L1314.68 532.082L1326.89 525.351L1311.83 522.76L1310.24 518.226V513.044Z" fill="#1A3954"/>
<path d="M909.083 520.169L910.668 521.465V520.169H909.083Z" fill="#213C55"/>
<path d="M466.698 524.056L470.229 537.012L455.598 549.319L466.698 549.967V549.319H463.526V548.672L471.454 549.967H467.49V550.615H473.833L473.04 549.319H476.211L475.419 551.263L480.175 549.967L478.59 551.263L485.725 567.457L492.067 553.854L511.888 551.911V551.263C507.815 548.553 498.274 543.577 496.988 539.22C495.438 533.973 501.279 526.872 501.581 521.465L481.761 530.887L466.698 524.056Z" fill="#1A3954"/>
<path d="M473.04 528.59V529.886H474.626V528.59H473.04Z" fill="#1A3954"/>
<path d="M898.776 531.829V533.773H899.569L898.776 531.829Z" fill="#1A3954"/>
<path d="M955.858 532.477V533.125H959.822L955.858 532.477Z" fill="#1A3954"/>
<path d="M1311.03 532.477V534.42L1312.62 533.773V533.125L1311.03 532.477Z" fill="#1A3954"/>
<path d="M943.173 533.125V533.773H948.723L943.173 533.125Z" fill="#1A3954"/>
<path d="M948.723 533.125L948.723 533.773H953.48L948.723 533.125Z" fill="#213C55"/>
<path d="M953.48 533.125V533.773H955.858L953.48 533.125Z" fill="#213C55"/>
<path d="M933.66 533.773V534.42H936.831L933.66 533.773Z" fill="#1A3954"/>
<path d="M936.831 533.773V534.42H939.209L936.831 533.773Z" fill="#213C55"/>
<path d="M939.209 533.773V534.42H942.38L939.209 533.773Z" fill="#213C55"/>
<path d="M920.975 534.42L920.975 535.068L924.146 535.716V535.068L920.975 534.42ZM927.317 534.42V535.068H929.695L927.317 534.42Z" fill="#1A3954"/>
<path d="M931.281 534.42V535.068H933.66L931.281 534.42Z" fill="#213C55"/>
<path d="M863.1 540.898V541.546H866.271L863.1 540.898Z" fill="#1A3954"/>
<path d="M881.334 541.546V542.842L882.92 541.546H881.334Z" fill="#213C55"/>
<path d="M495.239 542.194L498.41 544.137V543.489L495.239 542.194Z" fill="#1A3954"/>
<path d="M873.406 548.672L874.992 549.967V548.672H873.406Z" fill="#213C55"/>
<path d="M874.992 549.319L876.578 550.615V549.319H874.992Z" fill="#1A3954"/>
<path d="M879.749 550.615L878.163 551.263V551.911L879.749 550.615Z" fill="#213C55"/>
<path d="M881.334 550.615L880.542 553.854H881.334V550.615Z" fill="#213C55"/>
<path d="M879.749 551.263L881.334 553.206L881.334 551.263H879.749Z" fill="#1A3954"/>
<path d="M34.6192 555.797C35.232 559.993 33.9167 560.769 29.8623 562.923L34.6192 568.753H35.412C38.4746 565.389 41.0052 565.657 45.7184 566.162C43.4827 563.337 42.0668 561.748 43.34 558.388L34.6192 555.797Z" fill="#213C55"/>
<path d="M33.8264 556.445V560.332H34.6192L33.8264 556.445Z" fill="#1A3954"/>
<path d="M34.6192 557.093V559.036H35.412L34.6192 557.093Z" fill="#213C55"/>
<path d="M894.019 562.275L896.398 564.218L897.191 563.571V562.923L896.398 562.275H894.019Z" fill="#1A3954"/>
<path d="M930.488 562.923L931.281 564.866H932.074L930.488 562.923Z" fill="#1A3954"/>
<path d="M33.0335 564.866V567.457H33.8263L33.0335 564.866Z" fill="#1A3954"/>
<path d="M892.434 564.866V566.809H893.227L892.434 564.866Z" fill="#1A3954"/>
<path d="M931.281 565.514L932.074 567.457H932.867L932.867 565.514H931.281Z" fill="#213C55"/>
<path d="M932.867 570.048V571.344H934.452L932.867 570.048Z" fill="#213C55"/>
<path d="M194.766 570.696V571.344L198.73 573.287L194.766 570.696Z" fill="#1A3954"/>
<path d="M194.766 571.344V574.583H195.559L194.766 571.344Z" fill="#213C55"/>
<path d="M195.559 571.992V577.174L190.009 578.47L194.766 584.3C198.953 581.804 200.666 581.175 205.865 581.709C203.695 578.776 202.527 577.221 204.279 573.935L195.559 571.992Z" fill="#213C55"/>
<path d="M718.81 572.64L718.017 577.822H718.81V572.64Z" fill="#1A3954"/>
<path d="M719.602 573.287C719.465 576.704 717.858 577.659 714.845 579.765L720.395 580.413L721.188 586.891C724.312 584.738 725.441 582.598 729.909 583.004V575.879C724.981 576.973 723.388 575.908 719.602 573.287Z" fill="#213C55"/>
<path d="M913.839 575.231V576.526H915.425L913.839 575.231Z" fill="#213C55"/>
<path d="M722.774 575.879V576.526L725.945 577.174V576.526L722.774 575.879Z" fill="#213C55"/>
<path d="M723.566 575.878V576.526H725.945L723.566 575.878Z" fill="#1A3954"/>
<path d="M729.909 581.708L730.702 583.652H731.494L729.909 581.708Z" fill="#1A3954"/>
<path d="M1169.92 584.3L1173.48 597.255L1158.82 609.563L1177.84 610.859V610.211H1176.26V609.563H1179.43L1178.64 611.507C1185.89 613.373 1184.88 623.27 1188.94 627.701L1196.08 613.45L1214.31 612.802L1200.43 599.199L1204.8 581.709L1184.98 591.046L1169.92 584.3Z" fill="#1A3954"/>
<path d="M720.395 584.3V586.891L721.188 586.891L720.395 584.3Z" fill="#1A3954"/>
<path d="M941.588 590.777V591.425H943.966L941.588 590.777Z" fill="#1A3954"/>
<path d="M310.515 599.846C309.362 607.836 322.129 616.643 319.608 624.462C317.164 632.041 304.539 635.779 300.209 642.6C306.442 642.198 319.838 638.603 325.37 641.324C333.038 645.094 332.479 657.149 342.227 658.795C343.663 653.126 345.805 647.543 347.657 641.952C348.371 639.802 348.67 636.984 351.169 635.669C356.551 632.838 366.126 632.508 372.354 631.64C374.313 631.367 378.938 631.322 379.686 629.392C380.582 627.079 375.717 625.699 373.94 624.909C368.65 622.558 357.371 619.733 353.876 615.786C350.793 612.305 355.286 600.296 355.705 595.96C347.96 597.731 344.98 605.045 338.192 607.541C331.593 609.968 316.871 601.615 310.515 599.846Z" fill="#213C55"/>
<path d="M354.912 598.551V600.494H355.705L354.912 598.551Z" fill="#213C55"/>
<path d="M354.912 600.494V602.438H355.705L354.912 600.494Z" fill="#213C55"/>
<path d="M354.912 602.438L354.912 605.029H355.705L354.912 602.438Z" fill="#1A3954"/>
<path d="M1197.66 603.085V603.733L1200.83 604.381L1200.04 602.438L1197.66 603.085Z" fill="#1A3954"/>
<path d="M354.119 605.029V606.972H354.912L354.119 605.029Z" fill="#213C55"/>
<path d="M339.849 605.677L336.678 607.62V608.268L339.849 605.677Z" fill="#1A3954"/>
<path d="M1389.52 605.677L1393.49 618.632C1388.66 620.394 1382.3 624.067 1380.8 628.349C1385.56 628.427 1395.88 628.142 1399.31 631.147C1403.48 634.794 1402.48 643.468 1408.55 645.191C1409.6 641.551 1412.06 631.601 1416.58 630.033C1420.8 628.576 1426.27 630.059 1430.75 628.997L1418.86 621.871L1422.82 606.324C1420.43 607.041 1416.96 607.851 1418.06 610.211L1414.89 610.859L1415.68 609.563C1411.96 610.832 1407.52 612.064 1406.17 615.393H1403.79C1402.18 611.067 1394.51 607.243 1389.52 605.677Z" fill="#213C55"/>
<path d="M1170.71 607.62L1166.74 608.915V609.563C1169.58 609.563 1173.96 610.922 1174.67 608.268L1170.71 607.62Z" fill="#1A3954"/>
<path d="M1181.81 609.563L1181.01 610.211L1183.39 611.507L1181.81 609.563Z" fill="#1A3954"/>
<path d="M316.065 610.859V612.154L317.65 610.859H316.065Z" fill="#213C55"/>
<path d="M1414.1 610.859L1413.31 612.154H1414.89L1414.1 610.859Z" fill="#1A3954"/>
<path d="M316.858 611.507V612.154H319.236L316.858 611.507Z" fill="#213C55"/>
<path d="M1411.72 611.506L1411.72 613.45H1412.51L1411.72 611.506Z" fill="#213C55"/>
<path d="M317.65 612.154V613.45L319.236 612.154L317.65 612.154Z" fill="#1A3954"/>
<path d="M1403 612.802L1403.79 615.393L1406.17 613.45L1403 612.802Z" fill="#213C55"/>
<path d="M320.029 619.28L320.822 621.223H321.614V619.28L320.029 619.28Z" fill="#1A3954"/>
<path d="M379.489 627.053L380.282 628.997H381.075L379.489 627.053Z" fill="#213C55"/>
<path d="M1422.03 627.701V628.997H1423.61L1422.03 627.701Z" fill="#213C55"/>
<path d="M1382.39 628.349V628.997H1384.77L1382.39 628.349Z" fill="#213C55"/>
<path d="M1386.35 628.997V629.644H1388.73L1386.35 628.997Z" fill="#1A3954"/>
<path d="M1388.73 628.997V629.644H1391.11L1388.73 628.997Z" fill="#213C55"/>
<path d="M1391.11 628.997V629.644H1393.49L1391.11 628.997ZM380.282 629.644L378.696 630.292V630.94L380.282 629.644Z" fill="#213C55"/>
<path d="M1393.49 629.644V630.292H1395.86L1393.49 629.644Z" fill="#1A3954"/>
<path d="M1414.89 629.644V630.292H1419.65L1414.89 629.644Z" fill="#1A3954"/>
<path d="M1420.44 629.644V630.292H1427.58L1420.44 629.644Z" fill="#1A3954"/>
<path d="M374.732 630.94V631.588H377.111L374.732 630.94Z" fill="#213C55"/>
<path d="M372.354 631.588V632.236H374.732L372.354 631.588Z" fill="#1A3954"/>
<path d="M367.597 632.236V632.883H369.975L367.597 632.236Z" fill="#1A3954"/>
<path d="M80.6018 634.827V635.474H83.773L80.6018 634.827Z" fill="#1A3954"/>
<path d="M81.3946 634.827L80.6018 646.487C78.7023 646.118 78.6301 646.176 78.2234 647.782L79.809 647.135L77.4306 649.078L78.2234 652.317L76.6378 651.021L58.4033 654.26L71.8588 661.451L72.6738 674.989L87.7371 665.797L106.764 671.103L98.5802 655.18L107.557 645.191L93.358 646.409L81.3946 634.827Z" fill="#213C55"/>
<path d="M343.813 638.066V640.009H344.606L345.399 638.066H343.813Z" fill="#213C55"/>
<path d="M327.164 638.713V640.009L328.75 638.713H327.164Z" fill="#213C55"/>
<path d="M79.809 640.009L81.3946 641.305V640.009H79.809Z" fill="#213C55"/>
<path d="M79.809 640.657V642.6H80.6018L79.809 640.657Z" fill="#213C55"/>
<path d="M319.236 640.657V641.304H323.2L319.236 640.657Z" fill="#213C55"/>
<path d="M323.2 640.657L323.2 641.304H326.371L323.2 640.657ZM970.129 640.657V641.304L971.714 647.134H972.507C972.507 644.55 972.983 642.166 970.129 640.657Z" fill="#213C55"/>
<path d="M308.93 641.304V641.952H311.308L308.93 641.304Z" fill="#213C55"/>
<path d="M311.308 641.304V641.952H314.479L311.308 641.304Z" fill="#213C55"/>
<path d="M314.479 641.304L314.479 641.952H319.236L314.479 641.304Z" fill="#1A3954"/>
<path d="M970.129 641.304C964.809 648.255 962.097 649.376 952.687 647.782C956.262 655.497 955.43 655.705 951.894 663.329L957.444 660.738L960.615 662.034L965.372 660.738L972.507 669.159C972.586 661.548 975.797 660.485 983.606 657.499V656.851L972.507 652.965L971.714 641.304H970.129Z" fill="#213C55"/>
<path d="M79.0162 642.6V643.248L82.1874 643.896L81.3946 641.952L79.0162 642.6Z" fill="#213C55"/>
<path d="M305.758 641.952L305.758 642.6H308.93L305.758 641.952Z" fill="#1A3954"/>
<path d="M79.0162 643.248V645.191H79.809L79.0162 643.248Z" fill="#213C55"/>
<path d="M79.809 643.248V644.543H81.3946L79.809 643.248Z" fill="#213C55"/>
<path d="M1404.59 643.248L1405.38 645.839H1406.17L1404.59 643.248Z" fill="#1A3954"/>
<path d="M78.2234 645.191V645.839H81.3946L78.2234 645.191Z" fill="#213C55"/>
<path d="M105.179 644.543V645.191L107.557 645.191L105.179 644.543Z" fill="#1A3954"/>
<path d="M100.422 645.191V645.839H102.8L100.422 645.191Z" fill="#1A3954"/>
<path d="M971.714 647.134L971.714 650.373H972.507L971.714 647.134Z" fill="#213C55"/>
<path d="M76.6378 650.373V652.317L78.2234 652.317L78.2234 650.373H76.6378Z" fill="#213C55"/>
<path d="M1086.67 652.317H1087.46L1089.05 651.669V651.021L1087.46 650.373L1086.67 652.317Z" fill="#1A3954"/>
<path d="M1087.46 651.021C1088.11 654.409 1086.84 655.575 1083.5 657.499V658.147H1089.05L1090.63 663.977C1094.06 662.15 1094.65 659.455 1099.36 660.09L1097.77 652.965C1093.18 653.982 1091.37 653.146 1087.46 651.021Z" fill="#213C55"/>
<path d="M1087.46 652.317V654.26H1088.26L1087.46 652.317Z" fill="#213C55"/>
<path d="M338.263 653.612V654.908H339.849V653.612H338.263Z" fill="#213C55"/>
<path d="M339.849 658.795V659.442H342.227L339.849 658.795Z" fill="#1A3954"/>
<path d="M1096.18 659.442V660.09H1098.56L1096.18 659.442Z" fill="#213C55"/>
<path d="M959.822 660.738L954.272 662.681V663.329C956.397 662.992 960.258 662.914 959.822 660.738ZM961.408 660.738L963.786 662.034V661.386L961.408 660.738Z" fill="#213C55"/>
<path d="M973.3 661.386V663.329H974.092L973.3 661.386Z" fill="#1A3954"/>
<path d="M71.881 662.034V664.625H72.6738L71.881 662.034Z" fill="#213C55"/>
<path d="M1324.51 662.681C1325.4 666.173 1323.58 667.034 1320.55 669.159C1325.04 670.584 1327.22 671.459 1327.68 675.637L1336.4 671.103V670.455C1333.61 668.285 1334.33 666.723 1335.61 663.977C1330.73 665.24 1328.83 664.981 1324.51 662.681Z" fill="#1A3954"/>
<path d="M82.9802 663.977V665.272H84.5658L82.9802 663.977Z" fill="#213C55"/>
<path d="M972.507 663.977V665.92H973.3L972.507 663.977ZM71.881 664.625V668.511H72.6738L71.881 664.625Z" fill="#213C55"/>
<path d="M972.507 665.92V669.807H973.3L972.507 665.92Z" fill="#213C55"/>
<path d="M600.682 667.216V667.864H603.06L600.682 667.216Z" fill="#1A3954"/>
<path d="M601.474 667.864L593.546 676.933L587.204 676.285L587.997 674.989H587.204L583.24 674.341C587.435 682.186 586.945 682.115 582.447 689.888L591.168 688.593L592.754 687.297H596.718L602.267 695.718H603.06C603.728 688.8 605.638 686.358 614.159 684.706V682.763L603.06 679.524L601.474 667.864Z" fill="#213C55"/>
<path d="M71.0882 669.159V673.046H71.881L71.0882 669.159Z" fill="#1A3954"/>
<path d="M602.267 669.807V673.046H603.06L602.267 669.807Z" fill="#213C55"/>
<path d="M454.013 671.75V675.637H454.806V673.046L458.77 675.637L454.013 671.75Z" fill="#213C55"/>
<path d="M454.806 673.046C454.294 676.57 452.667 677.574 449.256 679.524L454.806 685.354C458.024 682.044 460.262 681.959 465.112 682.763C462.698 679.53 461.446 677.937 463.526 674.341C459.845 675.196 458.027 674.646 454.806 673.046Z" fill="#213C55"/>
<path d="M462.734 673.694L464.319 674.989V673.694H462.734Z" fill="#1A3954"/>
<path d="M603.06 674.341V678.228H603.853L603.06 674.341ZM805.225 674.341L802.054 686.002L783.027 688.593C785.397 692.46 789.1 690.795 792.54 692.479C794.396 693.393 796.068 695.628 793.333 695.07L794.919 697.014L797.297 695.718L798.09 698.957L800.468 698.309L794.126 714.504L808.396 707.592L823.46 712.561L819.757 697.662L833.766 686.002C827.677 684.531 819.583 687.498 814.112 685.606C810.331 684.304 807.873 677.347 806.811 674.341H805.225ZM453.22 674.989V677.58H454.013L453.22 674.989Z" fill="#1A3954"/>
<path d="M587.997 674.989L587.204 676.285H588.79L587.997 674.989Z" fill="#213C55"/>
<path d="M593.546 674.989L591.961 675.637V676.285L593.546 674.989Z" fill="#1A3954"/>
<path d="M807.604 679.524V681.467H808.396L807.604 679.524Z" fill="#1A3954"/>
<path d="M603.06 680.171V680.819L605.438 681.467L603.06 680.171Z" fill="#213C55"/>
<path d="M452.427 681.467V683.41H453.22L452.427 681.467Z" fill="#1A3954"/>
<path d="M457.977 681.467V682.115H460.355L457.977 681.467Z" fill="#213C55"/>
<path d="M453.22 683.41V685.354H454.013L453.22 683.41Z" fill="#213C55"/>
<path d="M590.375 687.297L585.618 689.24V689.888L590.375 687.297Z" fill="#213C55"/>
<path d="M592.754 688.593H595.132L594.339 687.297L592.754 688.593Z" fill="#213C55"/>
<path d="M590.375 687.945V689.24H591.961L590.375 687.945Z" fill="#213C55"/>
<path d="M603.853 689.24V691.831H604.646L603.853 689.24Z" fill="#1A3954"/>
<path d="M788.576 692.479V693.127L792.54 695.07L788.576 692.479Z" fill="#1A3954"/>
<path d="M816.325 698.957L815.532 699.605L817.91 701.548L816.325 698.957Z" fill="#1A3954"/>
<path d="M1342.75 716.447C1339.59 721.357 1338.57 727.246 1337.2 732.642C1336.57 735.116 1336.49 738.718 1333.79 740.357C1327.41 744.211 1314.71 744.282 1307.07 745.332C1303.4 745.831 1298.87 745.584 1297.56 748.836L1321.34 762.958L1329.44 769.034L1327.68 778.634L1322.13 800.659C1330.46 796.831 1340 784.801 1349.88 784.043C1355.69 783.603 1366.93 790.43 1372.08 792.685C1374.46 793.728 1378.61 795.736 1381.27 794.162C1383.83 792.639 1381.25 788.299 1380.53 786.408C1378.38 780.791 1371.38 770.181 1372.82 764.383C1373.57 761.345 1378.26 758.689 1380.8 756.61C1387.52 751.117 1395.02 746.135 1401.41 740.415V739.767L1399.83 737.176L1368.91 739.178L1358.21 739.32L1353.77 731.994L1344.33 716.447H1342.75Z" fill="#1A3954"/>
<path d="M1345.92 723.573V726.164H1346.71L1345.92 723.573Z" fill="#1A3954"/>
<path d="M278.803 746.245L282.767 757.258L281.181 753.371H280.389L281.181 760.496V761.792L282.767 763.735C276.854 762.835 270.404 768.004 265.325 770.213V770.861L281.974 772.804L286.731 785.76H288.317L297.977 773.472L317.65 772.804L303.885 760.49L308.137 748.836L294.995 753.792L278.803 746.245Z" fill="#213C55"/>
<path d="M278.803 749.484V751.428H279.596L278.803 749.484Z" fill="#1A3954"/>
<path d="M1309.45 752.723L1320.55 760.496H1321.34L1322.93 758.553L1318.96 755.314L1315.79 755.962H1315L1314.21 752.723H1309.45Z" fill="#1A3954"/>
<path d="M281.181 754.019V755.314L282.767 754.019H281.181Z" fill="#1A3954"/>
<path d="M303.38 754.019V755.314L304.966 754.019H303.38Z" fill="#213C55"/>
<path d="M279.596 754.666V756.61H280.389L279.596 754.666Z" fill="#1A3954"/>
<path d="M280.389 757.258L281.181 760.496L281.974 760.496L280.389 757.258Z" fill="#213C55"/>
<path d="M280.389 760.496L279.596 763.088H280.389V760.496Z" fill="#1A3954"/>
<path d="M281.181 761.792L280.389 762.44L282.767 763.735L281.181 761.792Z" fill="#213C55"/>
<path d="M89.3227 766.326V766.974L95.6651 770.213V769.565L89.3227 766.326Z" fill="#1A3954"/>
<path d="M1181.01 766.326L1181.81 768.27H1182.6L1181.01 766.326Z" fill="#1A3954"/>
<path d="M1330.06 766.326L1331.65 769.565C1333.7 767.713 1332.96 766.741 1330.06 766.326Z" fill="#1A3954"/>
<path d="M1179.43 766.974C1178.46 770.796 1178 777.961 1174.88 780.947C1170.49 785.145 1157.85 784.549 1151.68 785.76V787.056L1171.5 798.716H1172.29L1173.88 797.42L1174.67 799.363H1172.29L1167.54 818.797C1172.06 816.355 1179.32 809.08 1184.98 809.216C1191.84 809.385 1197.58 815.254 1204.8 815.558C1204.19 809.877 1197.65 802.324 1199.17 796.772C1200.95 790.288 1213.5 787.995 1215.53 781.958C1216.43 779.315 1211.13 780.137 1209.56 780.306C1202.74 781.025 1195.8 781.167 1188.94 781.873L1181.81 766.974H1179.43Z" fill="#213C55"/>
<path d="M1366.53 766.974L1368.91 772.157L1368.12 766.974H1366.53Z" fill="#1A3954"/>
<path d="M89.3227 767.622V769.565H90.1155L89.3227 767.622Z" fill="#1A3954"/>
<path d="M90.1155 767.622L90.9083 771.509L86.1515 773.452L91.7011 774.1L93.2867 780.578H94.0795L97.2507 775.395L102.008 776.043C100.049 773.413 99.3738 771.923 100.422 768.918L94.8723 770.861H94.0795L90.1155 767.622Z" fill="#213C55"/>
<path d="M264.532 770.213L266.911 771.509V770.861L264.532 770.213Z" fill="#213C55"/>
<path d="M266.911 770.861V771.509H269.289L266.911 770.861Z" fill="#213C55"/>
<path d="M270.082 771.509V772.157H272.461L270.082 771.509Z" fill="#1A3954"/>
<path d="M297.037 772.804V773.452H308.137L297.037 772.804Z" fill="#1A3954"/>
<path d="M308.137 772.804V773.452H311.308L308.137 772.804Z" fill="#213C55"/>
<path d="M311.308 772.804V773.452H313.686L311.308 772.804Z" fill="#213C55"/>
<path d="M313.686 773.452V774.1H317.65L313.686 773.452Z" fill="#1A3954"/>
<path d="M1183.39 774.1V776.043H1184.19L1183.39 774.1Z" fill="#213C55"/>
<path d="M1368.91 774.748V775.395H1371.29L1368.91 774.748Z" fill="#1A3954"/>
<path d="M99.6291 776.043V776.691H102.8L99.6291 776.043Z" fill="#1A3954"/>
<path d="M1032.76 777.339V779.282H1033.55L1032.76 777.339Z" fill="#1A3954"/>
<path d="M1033.55 777.339C1033.74 780.416 1032.69 781.491 1029.59 783.169L1035.14 783.817L1036.72 790.294H1037.52L1040.69 785.112L1045.45 785.76L1043.86 778.634L1037.52 780.578L1033.55 777.339Z" fill="#213C55"/>
<path d="M1033.55 779.282L1032.76 781.873H1033.55V779.282Z" fill="#213C55"/>
<path d="M1210.35 779.282V779.93H1214.31L1210.35 779.282Z" fill="#1A3954"/>
<path d="M1199.25 779.93V780.578H1202.42L1199.25 779.93Z" fill="#1A3954"/>
<path d="M1202.42 779.93L1202.42 780.578H1206.38L1202.42 779.93Z" fill="#213C55"/>
<path d="M1206.38 779.93V780.578H1210.35L1206.38 779.93Z" fill="#213C55"/>
<path d="M1349.88 779.93V781.225H1352.26V779.93H1349.88Z" fill="#1A3954"/>
<path d="M1192.11 780.578V781.226H1194.49L1192.11 780.578Z" fill="#1A3954"/>
<path d="M1196.08 780.578V781.226H1198.46L1196.08 780.578Z" fill="#213C55"/>
<path d="M1188.94 781.225V781.873L1192.11 781.873L1188.94 781.225Z" fill="#213C55"/>
<path d="M1034.35 783.817L1033.55 784.464L1035.93 785.76L1034.35 783.817Z" fill="#213C55"/>
<path d="M1158.82 783.817V784.464H1161.19L1158.82 783.817Z" fill="#1A3954"/>
<path d="M1153.27 784.464V785.112H1156.44L1153.27 784.464Z" fill="#1A3954"/>
<path d="M1045.44 785.112L1042.27 785.76V786.408L1045.44 785.112Z" fill="#1A3954"/>
<path d="M1159.61 789.647V790.294H1161.99L1159.61 789.647Z" fill="#213C55"/>
<path d="M1163.57 792.238V792.886L1167.54 793.533V792.886L1163.57 792.238Z" fill="#213C55"/>
<path d="M1172.29 797.42V798.068L1173.88 799.363L1172.29 798.716V799.363L1173.88 800.011L1172.29 797.42Z" fill="#213C55"/>
<path d="M1172.29 798.068L1173.88 799.363V798.068L1172.29 798.068Z" fill="#1A3954"/>
<path d="M1171.5 798.716L1171.5 800.659H1172.29L1171.5 798.716Z" fill="#213C55"/>
<path d="M1194.49 798.716V800.011L1196.08 798.716L1194.49 798.716Z" fill="#1A3954"/>
<path d="M1170.71 801.955V803.898H1171.5L1170.71 801.955Z" fill="#213C55"/>
<path d="M870.235 805.841V809.08H871.028L870.235 805.841Z" fill="#1A3954"/>
<path d="M868.65 806.489C863.972 813.342 859.707 812.371 851.208 811.023L856.758 818.149L859.929 821.388L852.001 829.161C862.006 827.289 862.315 829.038 870.235 833.696L872.407 823.584L883.713 817.501C874.128 816.348 870.108 814.528 870.235 806.489L868.65 806.489Z" fill="#213C55"/>
<path d="M870.235 809.08V811.023H871.028L870.235 809.08Z" fill="#213C55"/>
<path d="M870.235 811.023L870.235 814.262H871.028L870.235 811.023Z" fill="#213C55"/>
<path d="M859.136 811.671V812.319H861.514L859.136 811.671Z" fill="#1A3954"/>
<path d="M861.514 812.319L861.514 812.967H863.893L861.514 812.319Z" fill="#213C55"/>
<path d="M1200.04 812.319V813.615H1201.63L1200.04 812.319Z" fill="#213C55"/>
<path d="M853.586 814.262V814.91L856.758 815.558V814.91L853.586 814.262Z" fill="#213C55"/>
<path d="M854.379 815.558L854.379 816.206H856.757L854.379 815.558Z" fill="#213C55"/>
<path d="M855.172 816.206L857.55 820.092H858.343L857.55 816.206H855.172Z" fill="#213C55"/>
<path d="M857.55 820.092V821.388L859.136 820.092H857.55Z" fill="#213C55"/>
<path d="M859.136 820.092L858.343 821.388L859.929 821.388L859.136 820.092Z" fill="#213C55"/>
<path d="M601.474 821.388C600.027 827.121 599.245 840.038 594.547 844.378C592.199 846.548 587.278 846.768 584.033 847.377C575.352 849.009 565.261 849.009 557.077 851.834V853.129L580.861 867.316L589.439 873.645L587.838 882.279L582.447 904.952C589.244 901.078 595.513 896.446 602.267 892.456C604.329 891.238 607.206 888.641 609.859 888.472C620.636 887.792 631.325 902.73 642.7 898.474C640.871 891.232 637.884 884.106 635.036 877.097C633.998 874.538 631.61 870.684 633.129 868.028C636.428 862.269 646.46 856.18 652.214 851.944C656.68 848.653 661.182 846.813 659.349 841.469L630.808 843.6L618.436 844.041L614.15 837.583L605.438 821.388H601.474Z" fill="#1A3954"/>
<path d="M871.028 823.979V827.218H871.821L871.028 823.979Z" fill="#213C55"/>
<path d="M20.3487 825.275L18.741 836.76L0.528558 843.413L10.835 847.947V847.299L6.87099 846.004V845.356L14.799 847.299L13.2134 849.243L16.3846 850.538L15.5918 848.595L17.9703 849.243L19.5559 851.834L21.1415 850.538L18.7631 868.028L30.6551 859.186L48.0968 862.198L41.0979 846.651L52.0609 831.753C47.155 832.582 35.4342 836.805 30.9136 834.914C27.1937 833.359 24.3347 828.015 21.9343 825.275H20.3487Z" fill="#213C55"/>
<path d="M19.5559 827.218V829.809H20.3487L19.5559 827.218Z" fill="#213C55"/>
<path d="M871.028 827.218L871.028 829.809H871.821L871.028 827.218Z" fill="#213C55"/>
<path d="M605.438 828.514V830.457H607.024V828.514H605.438Z" fill="#1A3954"/>
<path d="M1005.8 829.161V829.809L1008.98 829.161H1005.8Z" fill="#1A3954"/>
<path d="M1006.6 829.161C1004.66 834.732 1003.07 840.329 1001.68 846.004C1001.11 848.329 1000.96 851.536 998.432 853.071C988.704 858.959 969.772 853.894 961.408 860.903L985.985 875.672L994.079 881.748L992.486 890.701L986.777 913.373C993.318 909.616 999.375 905.088 1005.8 901.149C1008.18 899.692 1011.38 896.894 1014.53 896.809C1020.7 896.641 1031.29 903.022 1036.72 905.399C1038.98 906.39 1043.25 908.482 1045.75 906.876C1048.31 905.237 1045.68 901.059 1044.99 899.122C1043.04 893.693 1035.7 882.545 1037.35 877.097C1038.27 874.059 1042.85 871.442 1045.44 869.324C1052.18 863.818 1059.52 858.759 1066.06 853.129C1061.52 847.215 1040.53 851.257 1032.76 851.944C1029.98 852.184 1025.3 853.589 1022.85 852.035C1015.12 847.137 1016.99 831.817 1006.6 829.161Z" fill="#213C55"/>
<path d="M1009.77 829.161V831.105H1010.56L1009.77 829.161Z" fill="#213C55"/>
<path d="M18.7631 829.809V833.696H19.5559L18.7631 829.809Z" fill="#1A3954"/>
<path d="M871.028 829.809L871.028 833.048H871.821L871.028 829.809Z" fill="#1A3954"/>
<path d="M18.7631 833.696V836.935H19.5559L18.7631 833.696Z" fill="#213C55"/>
<path d="M748.143 835.639C748.999 839.014 747.469 840.219 744.179 842.117V842.765H750.522L752.107 849.243H752.9C754.081 846.01 755.683 844.125 760.035 844.708C758.077 841.508 757.617 840.387 759.243 836.935C754.288 838.658 752.575 838.049 748.143 835.639Z" fill="#213C55"/>
<path d="M748.143 837.583V839.526H748.936L748.143 837.583Z" fill="#213C55"/>
<path d="M1011.35 837.583L1010.56 838.878H1012.15L1011.35 837.583Z" fill="#213C55"/>
<path d="M1012.15 842.117L1013.73 843.413V842.117H1012.15Z" fill="#1A3954"/>
<path d="M748.936 842.765L750.522 844.06V842.765H748.936Z" fill="#213C55"/>
<path d="M760.035 843.413L759.242 844.708V845.356C760.955 844.721 761.225 844.585 760.035 843.413Z" fill="#1A3954"/>
<path d="M756.864 844.06V844.708H759.242L756.864 844.06Z" fill="#213C55"/>
<path d="M6.87099 845.356V846.004L10.835 846.652V846.004L6.87099 845.356Z" fill="#213C55"/>
<path d="M36.9976 850.538H37.7904L39.376 849.89C37.9394 848.919 37.7729 849.139 36.9976 850.538Z" fill="#213C55"/>
<path d="M16.3847 849.89L16.3847 851.186L17.9703 849.89H16.3847Z" fill="#213C55"/>
<path d="M450.842 849.89L456.391 853.777V853.129L450.842 849.89Z" fill="#213C55"/>
<path d="M1050.2 849.89V850.538H1056.54L1050.2 849.89Z" fill="#1A3954"/>
<path d="M1056.54 849.89V850.538H1058.92L1056.54 849.89Z" fill="#213C55"/>
<path d="M1058.92 849.89V850.538H1061.3L1058.92 849.89Z" fill="#213C55"/>
<path d="M450.842 850.538C451.482 853.926 450.214 855.092 446.878 857.016V857.664H452.427L454.013 863.494C457.439 861.667 458.021 858.972 462.734 859.607L461.148 851.834C456.671 853.771 454.877 852.728 450.842 850.538Z" fill="#213C55"/>
<path d="M577.69 850.538V851.834H579.276V850.538H577.69Z" fill="#1A3954"/>
<path d="M1039.1 850.538V851.186H1043.07L1039.1 850.538Z" fill="#1A3954"/>
<path d="M1043.07 850.538V851.186H1048.62L1043.07 850.538Z" fill="#213C55"/>
<path d="M1031.97 851.186V851.834H1034.35L1031.97 851.186Z" fill="#1A3954"/>
<path d="M1035.93 851.186V851.834H1038.31L1035.93 851.186Z" fill="#213C55"/>
<path d="M18.7631 851.834L18.7631 853.777H19.5559L18.7631 851.834Z" fill="#213C55"/>
<path d="M450.842 851.834V853.777H451.634L450.842 851.834Z" fill="#213C55"/>
<path d="M1025.62 851.834V852.482H1028L1025.62 851.834Z" fill="#1A3954"/>
<path d="M1023.25 852.482V853.129H1025.62L1023.25 852.482Z" fill="#213C55"/>
<path d="M18.7631 853.777V855.72H19.5559L18.7631 853.777Z" fill="#213C55"/>
<path d="M981.228 855.72V856.368H983.606L981.228 855.72Z" fill="#1A3954"/>
<path d="M18.7631 856.368V859.607H19.5559L18.7631 856.368Z" fill="#213C55"/>
<path d="M569.762 857.016L568.969 857.664L573.726 862.198C576.964 862.503 580.073 865.612 582.447 862.846L577.69 862.198L578.483 859.607L569.762 857.016Z" fill="#1A3954"/>
<path d="M967.75 857.664V858.312H970.129L967.75 857.664Z" fill="#1A3954"/>
<path d="M965.372 858.312V858.959H967.75L965.372 858.312Z" fill="#213C55"/>
<path d="M457.977 858.959V859.607H460.355L457.977 858.959Z" fill="#213C55"/>
<path d="M17.9703 859.607V862.846H18.7631L17.9703 859.607Z" fill="#1A3954"/>
<path d="M17.9703 862.846V864.789H18.7631L17.9703 862.846Z" fill="#213C55"/>
<path d="M17.9703 864.789V866.733H18.7631L17.9703 864.789Z" fill="#213C55"/>
<path d="M584.033 866.733V868.028L587.997 869.324C587.247 867.29 586.643 866.687 584.033 866.733Z" fill="#1A3954"/>
<path d="M976.471 867.38V868.028L979.642 868.676V868.028L976.471 867.38Z" fill="#213C55"/>
<path d="M982.021 868.028C981.513 869.577 981.402 869.35 979.642 868.676L985.192 872.563L982.021 868.028Z" fill="#1A3954"/>
<path d="M591.168 870.619V873.858H592.754L593.546 871.267L591.168 870.619Z" fill="#1A3954"/>
<path d="M625.259 872.563V873.858L628.43 876.449H629.223L628.43 871.915L625.259 872.563Z" fill="#1A3954"/>
<path d="M989.156 874.506L989.949 876.449H990.742V874.506H989.156Z" fill="#1A3954"/>
<path d="M1397.45 877.745H1398.24L1399.04 876.449L1402.21 879.041L1399.04 875.802L1397.45 877.745Z" fill="#213C55"/>
<path d="M1398.24 876.449C1398.12 879.397 1397.25 880.608 1394.28 882.279V882.927C1398.68 884.268 1400.4 885.596 1401.41 889.405H1402.21C1403.79 886.49 1405.37 885.117 1409.34 884.871L1408.55 877.745C1403.79 878.982 1402.37 878.743 1398.24 876.449Z" fill="#213C55"/>
<path d="M1397.45 877.745V880.336H1398.24L1397.45 877.745Z" fill="#1A3954"/>
<path d="M630.015 879.041L629.223 880.336H630.808L630.015 879.041Z" fill="#1A3954"/>
<path d="M995.498 879.041V880.336L997.084 879.688L996.291 881.632H997.084L995.498 879.041Z" fill="#1A3954"/>
<path d="M590.375 879.688V881.632L591.961 879.688H590.375Z" fill="#1A3954"/>
<path d="M1030.38 880.984L1032.76 882.279L1031.97 880.336L1030.38 880.984Z" fill="#1A3954"/>
<path d="M1032.76 881.632V884.223H1033.55L1032.76 881.632Z" fill="#213C55"/>
<path d="M1406.96 881.632L1410.14 885.518H1410.93L1406.96 881.632Z" fill="#1A3954"/>
<path d="M1406.17 884.871V885.518H1408.55L1406.17 884.871Z" fill="#1A3954"/>
<path d="M992.327 885.518V888.11H993.12L992.327 885.518Z" fill="#1A3954"/>
<path d="M192.387 886.814C187.646 891.025 186.019 894.685 178.91 895.235L174.153 893.292L177.957 900.417L173.36 908.839C176.111 908.677 178.086 908.547 178.91 906.247H184.459L185.252 907.543L186.045 906.247H186.838L193.18 915.316H193.973C194 907.271 197.055 906.5 205.072 903.009V902.361L194.27 897.224L192.387 886.814Z" fill="#1A3954"/>
<path d="M1016.9 891.996L1014.53 893.292V893.94L1016.9 891.996Z" fill="#213C55"/>
<path d="M633.979 894.587V895.235L636.358 895.883L633.979 894.587Z" fill="#1A3954"/>
<path d="M193.18 899.77V900.417H196.351L193.18 899.77Z" fill="#1A3954"/>
<path d="M1093.81 899.122L1094.6 906.895H1095.39V904.304H1096.18V906.895L1096.98 910.782H1096.18V908.191H1095.39V912.078L1097.77 911.43L1096.18 913.373V914.669L1097.77 916.612C1092.13 916.249 1083.85 920.913 1080.33 924.385C1084.51 924.392 1093.44 924.21 1096.24 927.184C1099.71 930.876 1097.81 936.823 1103.32 939.284C1105.25 935.482 1108.72 927.708 1113.7 926.07C1119.46 924.178 1126.53 927.158 1132.65 925.681L1118.71 913.963L1123.14 902.361L1122.35 901.713L1109.66 906.882L1093.81 899.122Z" fill="#1A3954"/>
<path d="M1039.1 902.361V903.009L1041.48 903.656L1039.1 902.361Z" fill="#213C55"/>
<path d="M1282.49 903.009C1280.58 907.595 1276.29 920.123 1270.52 922.053C1263.59 924.366 1254.79 921.354 1247.61 923.09C1251.63 926.277 1261.41 930.151 1262.75 934.776C1263.7 938.06 1256.24 948.826 1259.99 950.86C1264.31 953.192 1275.52 944 1280.12 943.346C1286.31 942.471 1297.64 951.242 1302.31 954.183H1303.11C1306.32 947.388 1296.72 940.217 1297.72 933.48C1298.29 929.71 1308.85 924.865 1312.62 923.09V921.794C1307.09 920.46 1300.51 922.449 1295.21 920.758C1289 918.769 1285.97 907.744 1284.08 903.009H1282.49Z" fill="#213C55"/>
<path d="M1118.38 906.895V908.839H1119.18L1118.38 906.895Z" fill="#1A3954"/>
<path d="M985.985 909.486V911.43H986.777L985.985 909.486Z" fill="#1A3954"/>
<path d="M372.354 914.669L374.732 936.045L377.111 937.341C369.474 936.603 359.766 943.307 353.327 946.41C358.849 949.493 368.399 947.025 373.533 950.776C376.479 952.927 377.09 958.316 378.133 961.309C378.669 962.851 379.4 967.741 382.54 966.912C389.83 964.995 389.544 953.056 397.005 950.692C403.897 948.502 418.214 955.174 423.093 949.649C418.632 946.87 404.746 938.779 404.257 934.102C403.715 928.913 410.958 924.042 410.409 918.555L392.967 925.364L372.354 914.669Z" fill="#213C55"/>
<path d="M1277.74 915.964L1276.94 917.26H1278.53L1277.74 915.964Z" fill="#213C55"/>
<path d="M1275.36 918.555V920.499H1276.15L1275.36 918.555Z" fill="#213C55"/>
<path d="M372.354 920.499V923.09H373.147L372.354 920.499Z" fill="#1A3954"/>
<path d="M1293.59 920.499L1293.59 921.146H1311.83L1293.59 920.499Z" fill="#1A3954"/>
<path d="M373.94 921.794V923.09L375.525 921.794H373.94Z" fill="#213C55"/>
<path d="M1248.4 921.794V922.442H1256.33L1248.4 921.794ZM1263.47 921.794V922.442H1267.43L1263.47 921.794Z" fill="#1A3954"/>
<path d="M1268.22 921.794V922.442H1271.39L1268.22 921.794Z" fill="#1A3954"/>
<path d="M1258.71 922.442V923.09H1261.09L1258.71 922.442Z" fill="#213C55"/>
<path d="M1272.98 922.442L1272.19 923.738H1273.77L1272.98 922.442Z" fill="#1A3954"/>
<path d="M406.444 923.09V924.385H408.03V923.09H406.444Z" fill="#213C55"/>
<path d="M373.147 923.738V925.681H373.939L373.147 923.738Z" fill="#213C55"/>
<path d="M1108.08 925.033L1107.28 928.272H1108.08V925.033Z" fill="#1A3954"/>
<path d="M373.147 925.681V927.624H373.939L373.147 925.681Z" fill="#213C55"/>
<path d="M404.859 925.681L404.066 926.329V926.977L404.859 927.624H405.652L406.444 926.977V926.329L404.859 925.681Z" fill="#213C55"/>
<path d="M374.732 926.977V928.92H375.525L376.318 926.977L374.732 926.977Z" fill="#213C55"/>
<path d="M373.147 927.624V930.863H373.939L373.147 927.624Z" fill="#1A3954"/>
<path d="M375.525 927.624V929.568H376.318L375.525 927.624Z" fill="#213C55"/>
<path d="M373.94 931.511V933.454H374.732L373.94 931.511Z" fill="#213C55"/>
<path d="M373.94 933.454V935.398H374.732L373.94 933.454Z" fill="#213C55"/>
<path d="M718.81 934.75L714.053 941.228L701.368 939.284L706.125 946.41L709.296 949.649L702.161 957.422C712.088 955.563 712.4 957.351 720.395 961.957L723.026 951.268L733.873 945.762L721.21 942.245L718.809 937.341L718.81 934.75Z" fill="#213C55"/>
<path d="M373.94 936.045V936.693H377.111L373.94 936.045Z" fill="#213C55"/>
<path d="M720.395 937.341V939.932H721.188L720.395 937.341Z" fill="#1A3954"/>
<path d="M700.575 938.637V939.284H702.953L700.575 938.637Z" fill="#1A3954"/>
<path d="M369.975 939.284L369.975 940.58H371.561L369.975 939.284Z" fill="#213C55"/>
<path d="M709.296 939.932V940.58H711.674L709.296 939.932Z" fill="#1A3954"/>
<path d="M720.395 939.932V942.523H721.188L720.395 939.932Z" fill="#213C55"/>
<path d="M59.1961 946.41V947.058L61.5745 947.705L59.1961 946.41Z" fill="#1A3954"/>
<path d="M706.917 946.41V947.706H708.503V946.41H706.917Z" fill="#213C55"/>
<path d="M59.1961 947.058V950.297H59.9889L59.1961 947.058Z" fill="#213C55"/>
<path d="M352.534 947.058V947.706H354.912L352.534 947.058Z" fill="#213C55"/>
<path d="M59.9889 947.706C59.4173 950.659 57.593 951.592 54.4393 952.888V953.536C58.9852 954.43 59.9366 956.392 59.9889 960.013H60.7817C63.1791 957.72 65.1953 957.876 68.7098 958.07L65.5385 954.831V954.183L69.5025 949.001C65.3237 949.947 63.5193 949.753 59.9889 947.706Z" fill="#213C55"/>
<path d="M355.705 947.706V948.353H358.083L355.705 947.706Z" fill="#1A3954"/>
<path d="M949.516 948.353C950.372 951.728 948.842 952.933 945.552 954.831V955.479H951.101L952.687 961.309C956.112 959.482 956.698 956.787 961.408 957.422C959.275 954.436 959.14 952.875 960.615 949.649C955.715 951.178 953.836 950.692 949.516 948.353Z" fill="#213C55"/>
<path d="M949.516 949.001V950.944H950.308L949.516 949.001Z" fill="#213C55"/>
<path d="M389.796 950.297V951.592H391.381V950.297H389.796Z" fill="#1A3954"/>
<path d="M395.345 950.297V950.945H402.48L395.345 950.297Z" fill="#213C55"/>
<path d="M403.273 950.944V951.592H409.616L403.273 950.944Z" fill="#1A3954"/>
<path d="M409.616 950.944L409.616 951.592H411.994L409.616 950.944Z" fill="#213C55"/>
<path d="M411.994 950.944V951.592H414.373L411.994 950.944Z" fill="#213C55"/>
<path d="M1258.71 950.945L1261.09 952.24V951.592L1258.71 950.945Z" fill="#213C55"/>
<path d="M414.373 951.592L414.373 952.24H416.751L414.373 951.592Z" fill="#1A3954"/>
<path d="M721.188 951.592V954.183H721.981L721.188 951.592Z" fill="#213C55"/>
<path d="M56.0249 953.536L56.0249 954.183L58.4033 954.831L56.0249 953.536Z" fill="#213C55"/>
<path d="M721.188 954.183V958.07H721.981L721.188 954.183Z" fill="#1A3954"/>
<path d="M58.4033 954.831L59.1961 959.366H59.9889L58.4033 954.831Z" fill="#213C55"/>
<path d="M710.881 955.479V956.127L713.26 956.775L710.881 955.479Z" fill="#1A3954"/>
<path d="M958.237 956.774V957.422H960.615L958.237 956.774Z" fill="#213C55"/>
<path d="M720.395 958.718V961.309H721.188L720.395 958.718Z" fill="#213C55"/>
</svg>
