<svg width="50" height="24" viewBox="0 0 50 24" fill="none" xmlns="http://www.w3.org/2000/svg">
<rect width="50" height="24" rx="12" fill="#484848"/>
<path d="M41.2591 9.7215L39.8683 10.015L40.8209 11.07L40.6703 12.4833L41.968 11.9033L43.2657 12.4833L43.1151 11.07L44.0677 10.015L42.6769 9.7215L41.968 8.4895L41.2591 9.7215Z" fill="#CBCBCB"/>
<path d="M45.4725 15.4524L44.5614 15.2601L44.097 14.4529L43.6325 15.2601L42.7214 15.4524L43.3455 16.1435L43.2469 17.0694L44.097 16.6894L44.9473 17.0694L44.8485 16.1434L45.4725 15.4524Z" fill="#CBCBCB"/>
<path d="M37.6659 12C37.6659 8.86446 39.4701 6.15075 42.0967 4.83903C41.0222 4.30242 39.8102 4 38.5275 4C34.1092 4 30.5275 7.58171 30.5275 12C30.5275 16.4183 34.1092 20 38.5275 20C39.8102 20 41.0222 19.6976 42.0967 19.161C39.4701 17.8492 37.6659 15.1355 37.6659 12Z" fill="#CBCBCB"/>
</svg>
