<svg width="50" height="24" viewBox="0 0 50 24" fill="none" xmlns="http://www.w3.org/2000/svg">
<rect width="50" height="24" rx="12" fill="#10063A"/>
<g clip-path="url(#clip0_398_579)">
<path d="M41.2589 9.7215L39.8682 10.015L40.8208 11.07L40.6702 12.4833L41.9679 11.9033L43.2655 12.4833L43.1149 11.07L44.0675 10.015L42.6768 9.7215L41.9679 8.4895L41.2589 9.7215Z" fill="white"/>
<path d="M45.4723 15.4524L44.5612 15.2601L44.0967 14.4529L43.6323 15.2601L42.7212 15.4524L43.3453 16.1435L43.2466 17.0694L44.0968 16.6894L44.947 17.0694L44.8482 16.1435L45.4723 15.4524Z" fill="white"/>
<path d="M37.6658 12C37.6658 8.86446 39.47 6.15075 42.0966 4.83903C41.022 4.30242 39.8101 4 38.5273 4C34.1091 4 30.5273 7.58171 30.5273 12C30.5273 16.4183 34.1091 20 38.5273 20C39.8101 20 41.022 19.6976 42.0966 19.161C39.47 17.8492 37.6658 15.1355 37.6658 12Z" fill="white"/>
</g>
<defs>
<clipPath id="clip0_398_579">
<rect width="16" height="16" fill="white" transform="translate(30 4)"/>
</clipPath>
</defs>
</svg>
