<svg width="22" height="22" viewBox="0 0 22 22" fill="none" xmlns="http://www.w3.org/2000/svg">
<path fill-rule="evenodd" clip-rule="evenodd" d="M9.65252 3.18769C6.08201 3.18769 3.18753 6.08216 3.18753 9.65267C3.18753 13.2232 6.08201 16.1177 9.65252 16.1177C13.223 16.1177 16.1175 13.2232 16.1175 9.65267C16.1175 6.08216 13.223 3.18769 9.65252 3.18769ZM1.57129 9.65267C1.57129 5.18954 5.18939 1.57144 9.65252 1.57144C14.1157 1.57144 17.7337 5.18954 17.7337 9.65267C17.7337 14.1158 14.1157 17.7339 9.65252 17.7339C5.18939 17.7339 1.57129 14.1158 1.57129 9.65267Z" fill="#758899"/>
<path d="M15.619 14.4168L20.1795 18.9774C20.5117 19.3096 20.5117 19.8482 20.1795 20.1804C19.8473 20.5126 19.3087 20.5126 18.9765 20.1804L14.416 15.6198L15.619 14.4168Z" fill="#758899"/>
</svg>
