<svg width="50" height="24" viewBox="0 0 50 24" fill="none" xmlns="http://www.w3.org/2000/svg">
<rect width="50" height="24" rx="12" fill="white"/>
<path d="M12 16.4183C14.4402 16.4183 16.4183 14.4402 16.4183 12C16.4183 9.55986 14.4402 7.58173 12 7.58173C9.55986 7.58173 7.58173 9.55986 7.58173 12C7.58173 14.4402 9.55986 16.4183 12 16.4183Z" fill="#C6C6C6"/>
<path d="M12 17.1408C9.1654 17.1408 6.85925 14.8347 6.85925 12.0001C6.85925 9.16552 9.1654 6.85938 12 6.85938C14.8346 6.85938 17.1407 9.16552 17.1407 12.0001C17.1407 14.8347 14.8346 17.1408 12 17.1408ZM12 8.30417C9.96211 8.30417 8.30414 9.96214 8.30414 12C8.30414 14.0379 9.96211 15.6959 12 15.6959C14.0379 15.6959 15.6958 14.0379 15.6958 12C15.6958 9.96214 14.0379 8.30417 12 8.30417Z" fill="#C6C6C6"/>
<path d="M12 5.7938C11.601 5.7938 11.2775 5.47034 11.2775 5.07136V2.72245C11.2775 2.32346 11.601 2 12 2C12.399 2 12.7224 2.32346 12.7224 2.72245V5.07136C12.7224 5.47034 12.399 5.7938 12 5.7938Z" fill="#C6C6C6"/>
<path d="M12 22C11.601 22 11.2775 21.6765 11.2775 21.2776V18.9287C11.2775 18.5297 11.601 18.2062 12 18.2062C12.399 18.2062 12.7224 18.5297 12.7224 18.9287V21.2776C12.7224 21.6766 12.399 22 12 22Z" fill="#C6C6C6"/>
<path d="M21.2775 12.7224H18.9286C18.5296 12.7224 18.2062 12.399 18.2062 12C18.2062 11.601 18.5296 11.2776 18.9286 11.2776H21.2775C21.6765 11.2776 22 11.601 22 12C22 12.399 21.6766 12.7224 21.2775 12.7224Z" fill="#C6C6C6"/>
<path d="M5.07136 12.7224H2.72245C2.32346 12.7224 2 12.399 2 12C2 11.601 2.32346 11.2776 2.72245 11.2776H5.07136C5.47034 11.2776 5.7938 11.601 5.7938 12C5.7938 12.399 5.47034 12.7224 5.07136 12.7224Z" fill="#C6C6C6"/>
<path d="M16.8994 7.82311C16.7145 7.82311 16.5296 7.75259 16.3885 7.61148C16.1064 7.32934 16.1064 6.87188 16.3885 6.58984L18.0495 4.92899C18.3316 4.64685 18.7891 4.64675 19.0711 4.92899C19.3533 5.21113 19.3533 5.66858 19.0711 5.95062L17.4102 7.61148C17.2692 7.75259 17.0842 7.82311 16.8994 7.82311Z" fill="#C6C6C6"/>
<path d="M5.43971 19.2827C5.25486 19.2827 5.06991 19.2122 4.92889 19.0711C4.64675 18.789 4.64675 18.3315 4.92889 18.0495L6.58984 16.3885C6.87198 16.1064 7.32943 16.1064 7.61148 16.3885C7.89362 16.6707 7.89362 17.1281 7.61148 17.4101L5.95052 19.0711C5.8095 19.2122 5.62465 19.2827 5.43971 19.2827Z" fill="#C6C6C6"/>
<path d="M18.5602 19.2827C18.3753 19.2827 18.1904 19.2122 18.0494 19.0711L16.3884 17.4101C16.1063 17.128 16.1063 16.6706 16.3884 16.3885C16.6706 16.1064 17.128 16.1064 17.4101 16.3885L19.071 18.0495C19.3531 18.3316 19.3531 18.7891 19.071 19.0711C18.93 19.2122 18.7451 19.2827 18.5602 19.2827Z" fill="#C6C6C6"/>
<path d="M7.10066 7.82311C6.91581 7.82311 6.73086 7.75259 6.58984 7.61148L4.92889 5.95062C4.64675 5.66848 4.64675 5.21113 4.92889 4.92899C5.21103 4.64685 5.66848 4.64675 5.95052 4.92899L7.61148 6.58984C7.89362 6.87198 7.89362 7.32934 7.61148 7.61148C7.47045 7.75259 7.2856 7.82311 7.10066 7.82311Z" fill="#C6C6C6"/>
</svg>
