<svg width="36" height="43" viewBox="0 0 36 43" fill="none" xmlns="http://www.w3.org/2000/svg">
<g clip-path="url(#clip0_36_123)">
<path d="M9.38201 42.9695C9.23131 42.43 9.35957 42.1667 9.89343 42.2197C10.0002 42.2261 10.1073 42.2261 10.2141 42.2197C12.2806 42.1908 12.8049 41.738 13.0293 39.699C13.1009 39.0082 13.1357 38.3142 13.1335 37.6198C13.1421 32.1127 13.1421 26.6051 13.1335 21.097C13.1223 20.5899 13.0821 20.0839 13.0133 19.5813C12.8321 18.032 12.0513 17.3336 10.4722 17.3015C10.1275 17.3015 9.78442 17.3015 9.42209 17.3015C9.24253 16.7941 9.26177 16.5163 9.88061 16.5179C14.0185 16.534 18.158 16.4617 22.2926 16.5661C23.9295 16.6079 25.5776 16.9354 27.1808 17.3015C31.0622 18.1893 33.5808 20.6972 34.982 24.3386C36.326 27.7335 36.3392 31.5118 35.0189 34.916C33.3002 39.4854 29.693 41.7573 25.0886 42.6516C23.9619 42.8637 22.8186 42.9744 21.6722 42.9823C17.7491 43.0225 13.8165 43 9.89985 43C9.74113 42.9936 9.58402 42.9791 9.38201 42.9695ZM16.8337 29.9083H16.8578C16.8578 33.3843 16.8738 36.8603 16.8449 40.3364C16.8449 40.9449 17.0181 41.1953 17.6257 41.2531C18.6053 41.3447 19.5752 41.5871 20.5548 41.6224C23.9984 41.746 26.9387 40.5836 29.0133 37.7691C31.8205 33.9735 32.0337 29.714 30.8089 25.318C29.8678 21.9351 27.6025 19.6504 24.3544 18.4992C22.2285 17.743 19.9616 17.7911 17.7283 18.3547C17.0614 18.5153 16.8145 18.7802 16.8193 19.4786C16.8546 22.9594 16.8337 26.4339 16.8337 29.9083Z" fill="white"/>
<path d="M0.0575428 25.766C0.825479 25.6488 1.54532 25.5958 2.23149 25.4192C3.12768 25.1896 3.60384 24.5457 3.67438 23.6193C3.69682 23.3528 3.71446 23.0847 3.71446 22.8166C3.71446 16.3702 3.73049 9.92394 3.70003 3.47763C3.69842 1.35027 3.03149 0.761034 0.876781 0.730528C0.424677 0.730528 -0.178129 0.876634 0.0751781 0H20.2948V5.68046L20.1217 5.79285C19.9763 5.62113 19.854 5.43114 19.7577 5.22769C19.5573 4.6224 19.4371 3.9882 19.2143 3.39093C18.8199 2.32966 18.0712 1.63767 16.9121 1.55418C15.6904 1.46587 14.4624 1.43216 13.2359 1.41771C11.373 1.39523 9.50844 1.41771 7.5862 1.41771V11.7093C7.63269 11.7527 7.66957 11.8217 7.70804 11.8217C10.0038 11.8217 12.3044 11.9293 14.5906 11.796C16.4119 11.6884 17.1381 10.7669 17.3417 8.85303C17.4267 8.0631 17.4267 8.0631 18.1016 8.06952V15.1179C17.502 15.2785 17.1397 15.2191 16.7389 14.5945C16.4183 14.0775 15.692 13.5429 15.1117 13.5027C12.7469 13.3422 10.3694 13.3534 7.99502 13.3085C7.4371 13.2988 7.54452 13.7403 7.54291 14.0582C7.53329 16.9482 7.52528 19.8382 7.54291 22.7282C7.55253 24.8155 7.7385 24.9857 9.84672 24.9921C10.4543 24.9921 11.062 24.9921 11.7129 24.9921V26.4371H10.9177C7.52528 26.4371 4.13289 26.4371 0.742112 26.4371C0.26115 26.4419 -0.160493 26.4451 0.0575428 25.766Z" fill="white"/>
<path d="M22.501 20.0421C22.0858 21.2945 21.6738 22.5468 21.2521 23.7959C21.0485 24.4012 20.7712 24.9889 20.6301 25.607C20.4698 26.3231 20.0738 26.5559 19.3812 26.4579C19.0184 26.4303 18.6542 26.427 18.291 26.4483C18.2461 25.3774 18.012 24.4831 19.0637 23.6386C20.0032 22.8824 20.5884 21.6846 21.3467 20.6956C21.5936 20.3745 21.8934 20.0919 22.1692 19.7901L22.501 20.0421Z" fill="white"/>
</g>
<defs>
<clipPath id="clip0_36_123">
<rect width="36" height="43" fill="white"/>
</clipPath>
</defs>
</svg>
