<svg width="50" height="50" viewBox="0 0 50 50" fill="none" xmlns="http://www.w3.org/2000/svg">
<path d="M6.6 39C5.416 39 4.824 38.408 4.824 37.224V8.76C4.824 7.576 5.416 6.984 6.6 6.984H24.072C25.256 6.984 25.848 7.576 25.848 8.76C25.848 9.928 25.256 10.512 24.072 10.512H8.352V21.072H18.408C19.592 21.072 20.184 21.656 20.184 22.824C20.184 24.008 19.592 24.6 18.408 24.6H8.352V35.472H24.072C25.256 35.472 25.848 36.056 25.848 37.224C25.848 38.408 25.256 39 24.072 39H6.6Z" fill="white"/>
<path d="M25.9501 39C24.7661 39 24.1741 38.408 24.1741 37.224V8.76C24.1741 7.576 24.7661 6.984 25.9501 6.984H37.5181C41.6301 6.984 44.6461 7.952 46.5661 9.888C48.4861 11.808 49.4461 14.824 49.4461 18.936V27.048C49.4461 31.16 48.4861 34.184 46.5661 36.12C44.6621 38.04 41.6461 39 37.5181 39H25.9501ZM27.7021 35.472H37.5181C39.5981 35.472 41.2541 35.208 42.4861 34.68C43.7181 34.152 44.5981 33.272 45.1261 32.04C45.6541 30.808 45.9181 29.144 45.9181 27.048V18.936C45.9181 16.856 45.6541 15.2 45.1261 13.968C44.5981 12.736 43.7181 11.856 42.4861 11.328C41.2541 10.784 39.5981 10.512 37.5181 10.512H27.7021V35.472Z" fill="white"/>
</svg>
